<?xml version="1.0" encoding="utf-8"?>
<svg width="160" height="32" viewBox="0 0 160 32" fill="#fff" xmlns="http://www.w3.org/2000/svg">
  <path class="icon-weibo" d="M 30.16 14.484 C 30.16 14.485 30.16 14.486 30.16 14.488 C 29.986 15.072 29.347 15.392 28.766 15.204 C 28.183 15.015 27.863 14.386 28.037 13.801 L 28.037 13.801 C 28.619 12.002 28.27 9.95 26.905 8.447 C 25.538 6.943 23.533 6.369 21.701 6.761 C 21.091 6.889 20.51 6.504 20.364 5.904 C 20.248 5.303 20.626 4.712 21.236 4.581 L 21.236 4.581 C 23.824 4.029 26.643 4.836 28.562 6.955 C 30.451 9.07 30.974 11.954 30.16 14.484 Z M 22.457 10.323 L 22.457 10.322 C 21.935 10.434 21.439 10.103 21.323 9.586 C 21.207 9.068 21.526 8.559 22.051 8.45 C 23.329 8.178 24.694 8.571 25.625 9.602 C 26.555 10.632 26.817 12.039 26.41 13.271 C 26.235 13.774 25.713 14.049 25.189 13.89 C 24.694 13.725 24.434 13.184 24.579 12.681 L 24.579 12.681 C 24.782 12.079 24.666 11.392 24.202 10.888 C 23.737 10.384 23.067 10.192 22.457 10.323 Z M 22.835 12.116 C 23.329 12.834 23.3 13.843 22.835 15.013 C 22.602 15.55 22.893 15.633 23.3 15.756 C 24.986 16.272 26.817 17.524 26.817 19.728 C 26.817 23.376 21.585 27.972 13.679 27.972 C 7.632 27.972 1.47 25.047 1.47 20.236 C 1.47 17.724 3.069 14.817 5.801 12.072 C 9.464 8.411 13.737 6.743 15.336 8.351 C 16.063 9.059 16.12 10.284 15.655 11.749 C 15.423 12.486 16.353 12.077 16.353 12.08 C 19.317 10.84 21.905 10.767 22.835 12.116 Z M 21.818 19.661 C 21.526 16.502 17.371 14.326 12.545 14.801 C 7.748 15.279 4.087 18.226 4.407 21.385 C 4.726 24.546 8.883 26.72 13.679 26.247 C 18.503 25.771 22.137 22.821 21.818 19.66 Z M 10.569 24.89 C 8.242 24.142 7.284 21.856 8.301 19.798 C 9.289 17.778 11.875 16.638 14.173 17.233 C 16.527 17.846 17.748 20.083 16.76 22.255 C 15.801 24.478 12.951 25.663 10.569 24.89 Z M 11.875 20.563 C 11.121 20.25 10.162 20.572 9.697 21.293 C 9.232 22.016 9.464 22.88 10.19 23.217 C 10.946 23.559 11.934 23.235 12.4 22.492 C 12.865 21.741 12.632 20.885 11.875 20.563 Z M 13.708 19.801 C 13.416 19.688 13.067 19.825 12.893 20.108 C 12.748 20.388 12.835 20.71 13.126 20.829 C 13.416 20.949 13.766 20.811 13.941 20.522 C 14.114 20.233 13.998 19.908 13.708 19.801 Z"/>
  <path class="icon-github" d="M 59.783 13.373 C 59.895 12.665 59.97 11.845 59.97 10.95 C 59.97 7.111 58.143 5.769 57.77 5.135 C 58.293 2.228 57.696 0.923 57.397 0.475 C 56.353 0.102 53.781 1.444 52.365 2.339 C 50.053 1.668 45.209 1.743 43.419 2.525 C 40.063 0.14 38.275 0.475 38.275 0.475 C 38.275 0.475 37.119 2.525 37.976 5.544 C 36.859 6.961 36.038 7.93 36.038 10.576 C 36.038 11.21 36.075 11.806 36.151 12.365 C 37.156 17.397 41.11 19.559 45.021 19.932 C 44.425 20.379 43.716 21.237 43.642 22.206 C 42.897 22.691 41.444 22.84 40.288 22.467 C 38.684 21.945 38.051 18.777 35.627 19.224 C 35.105 19.336 35.217 19.671 35.665 19.969 C 36.409 20.454 37.082 21.05 37.641 22.317 C 38.05 23.286 38.907 25.038 41.628 25.038 C 42.71 25.038 43.454 24.926 43.454 24.926 C 43.454 24.926 43.492 27.424 43.492 28.392 C 43.492 29.51 42.001 29.809 42.001 30.368 C 42.001 30.592 42.486 30.592 42.895 30.592 C 43.68 30.592 45.319 29.921 45.319 28.766 L 45.319 24.219 C 45.319 23.026 45.953 22.653 45.953 22.653 C 45.953 22.653 46.028 28.99 45.805 29.81 C 45.543 30.816 45.059 30.667 45.059 31.115 C 45.059 31.786 47.035 31.264 47.706 29.81 C 48.227 28.692 48.003 22.467 48.003 22.467 L 48.525 22.467 L 48.525 26.605 C 48.489 27.947 48.378 29.662 49.159 30.444 C 49.683 30.966 51.285 31.898 51.285 31.04 C 51.285 30.555 50.167 30.145 50.167 28.804 L 50.167 22.654 C 50.837 22.654 50.988 24.667 50.988 24.667 L 51.248 28.395 C 51.248 28.395 51.099 29.774 52.702 30.333 C 53.261 30.519 54.529 30.594 54.567 30.258 C 54.642 29.922 53.075 29.401 53.075 28.357 C 53.075 27.723 53.113 27.351 53.113 24.555 C 53.113 21.759 52.739 20.716 51.435 19.895 C 55.163 19.522 59.076 17.808 59.785 13.372 Z"/>
  <path class="icon-mail" d="M 83.714 17.12 C 83.674 17.038 83.594 17 83.474 17.078 L 80.8 18.635 C 80.48 18.835 80.122 18.835 79.8 18.635 L 77.485 17.317 C 77.405 17.277 77.325 17.277 77.245 17.317 L 68.34 25.543 C 68.3 25.583 68.3 25.623 68.3 25.743 C 68.3 25.783 68.34 25.823 68.38 25.903 C 68.58 25.943 68.7 25.983 68.78 25.983 L 91.502 25.983 C 91.542 25.983 91.622 25.943 91.7 25.903 C 91.7 25.783 91.7 25.703 91.66 25.663 L 83.714 17.118 Z M 75.01 16.36 C 75.05 16.32 75.05 16.28 75.05 16.2 C 75.05 16.12 75.01 16.04 74.97 16.04 L 68.06 12.09 C 67.98 12.05 67.9 12.05 67.82 12.09 C 67.78 12.09 67.74 12.13 67.74 12.25 L 67.74 22.67 C 67.74 22.752 67.78 22.832 67.9 22.87 L 67.98 22.87 C 68.02 22.87 68.06 22.87 68.06 22.832 L 75.01 16.362 Z M 92.14 11.888 L 91.94 11.888 L 85.35 15.8 C 85.31 15.8 85.27 15.84 85.27 15.96 C 85.23 16 85.27 16.04 85.31 16.12 L 91.9 23.228 C 91.94 23.268 92.02 23.308 92.06 23.308 L 92.14 23.308 C 92.22 23.228 92.3 23.148 92.3 23.108 L 92.3 12.088 C 92.3 12.008 92.26 11.928 92.14 11.888 Z M 91.5 6.017 L 68.5 6.017 C 68.26 6.017 68.102 6.097 67.9 6.217 C 67.742 6.377 67.66 6.577 67.66 6.817 L 67.66 9.37 C 67.66 9.49 67.702 9.57 67.82 9.57 L 79.96 16.478 C 80 16.478 80.08 16.478 80.12 16.438 L 91.82 9.61 C 91.86 9.57 91.94 9.57 91.98 9.57 C 92.02 9.57 92.06 9.57 92.138 9.53 C 92.258 9.53 92.338 9.49 92.338 9.33 L 92.338 6.857 C 92.338 6.617 92.258 6.377 92.098 6.257 C 91.898 6.097 91.698 6.017 91.5 6.017 Z"/>
  <path class="icon-rss" d="M 111.363 16.241 C 107.651 12.849 101.014 12.053 101.014 12.053 C 100.267 12.053 99.66 12.559 99.66 13.287 L 99.66 15.597 C 99.66 16.321 100.267 16.828 101.014 16.832 C 101.014 16.832 105.279 16.943 107.842 19.255 C 111.224 22.309 111.13 26.543 111.13 26.543 C 111.13 27.274 111.482 27.864 112.231 27.864 L 114.855 27.864 C 115.602 27.864 115.785 27.274 115.785 26.543 C 115.785 26.543 115.161 19.709 111.363 16.243 Z M 103.172 21.404 C 101.319 21.404 99.815 22.869 99.815 24.672 C 99.815 26.481 101.319 27.942 103.172 27.942 C 105.028 27.942 106.531 26.481 106.531 24.672 C 106.531 22.869 105.028 21.404 103.172 21.404 Z M 118.006 11.656 C 112.166 4.799 101.015 4.058 101.015 4.058 C 100.27 4.058 99.661 4.566 99.661 5.296 L 99.661 7.602 C 99.661 8.331 100.27 8.836 101.015 8.836 C 101.015 8.836 108.984 9.088 113.479 14.258 C 119.639 20.427 119.172 26.595 119.172 26.595 C 119.172 27.325 119.777 27.914 120.527 27.914 L 123.149 27.914 C 123.898 27.914 124.335 27.325 124.335 26.595 C 124.335 26.595 123.78 16.893 118.006 11.656 Z"/>
  <path class="icon-logo" d="M 134.628 16.699 C 134.122 16.997 133.483 17.083 132.942 17.083 C 131.443 17.083 130.3 15.91 130.3 14.523 C 130.3 13.415 131.116 12.477 132.41 12.477 C 133.327 12.477 133.988 12.988 134.122 13.3 C 134.143 13.422 134.167 13.755 134.167 13.891 L 134.33 13.941 C 134.338 13.266 134.379 12.526 134.485 11.745 L 134.321 11.781 C 134.3 11.866 134.216 12.321 134.173 12.413 C 133.973 12.358 133.314 12.229 132.688 12.229 C 131.971 12.229 131.309 12.323 130.57 12.818 C 129.945 13.238 129.45 13.964 129.45 14.943 C 129.45 15.854 129.996 16.664 130.921 17.118 C 131.496 17.403 132.27 17.433 132.533 17.433 C 133.651 17.433 134.368 17.142 134.53 17.004 L 134.631 16.699 L 134.629 16.699 Z M 139.398 14.672 C 140.051 14.368 140.591 13.776 140.591 13.328 C 140.591 12.938 140.313 12.667 139.864 12.517 C 139.291 12.328 138.283 12.319 137.478 12.319 L 135.651 12.326 L 135.676 12.476 C 135.862 12.493 136.437 12.533 136.581 12.563 C 136.615 12.698 136.623 14.063 136.623 14.318 L 136.623 14.752 C 136.623 15.499 136.614 16.892 136.581 17.097 C 136.344 17.149 135.803 17.191 135.686 17.198 L 135.651 17.347 C 135.846 17.333 136.733 17.319 137.08 17.319 C 137.47 17.319 138.324 17.333 138.536 17.347 L 138.502 17.199 C 138.316 17.184 137.758 17.136 137.613 17.097 C 137.59 16.775 137.572 15.678 137.572 15.217 L 137.572 15.033 C 137.715 15.033 138.064 15.012 138.385 14.991 C 138.521 15.141 140.772 17.323 141.364 17.549 L 141.735 17.5 C 140.855 16.719 139.494 14.858 139.399 14.679 L 139.399 14.672 Z M 138.603 14.672 C 138.239 14.785 137.875 14.809 137.571 14.809 L 137.571 14.587 C 137.571 14.083 137.59 12.811 137.614 12.519 C 139.078 12.519 139.57 13.073 139.57 13.528 C 139.57 14.233 138.968 14.559 138.603 14.672 Z M 144.387 12.563 C 144.642 12.535 144.99 12.477 145.134 12.46 L 145.168 12.314 C 145.047 12.33 144.437 12.34 144.075 12.34 C 143.513 12.34 142.859 12.33 142.724 12.314 L 142.76 12.462 C 142.898 12.479 143.365 12.535 143.508 12.563 C 143.535 12.804 143.545 14.134 143.545 14.366 L 143.545 14.785 C 143.545 15.483 143.535 16.799 143.508 17.097 C 143.358 17.124 142.875 17.191 142.754 17.194 L 142.727 17.345 C 142.939 17.331 143.593 17.317 143.835 17.317 C 144.275 17.317 145.015 17.333 145.171 17.345 L 145.134 17.194 C 144.993 17.181 144.567 17.139 144.39 17.097 C 144.362 16.955 144.354 15.767 144.354 14.842 L 144.354 14.403 C 144.354 13.528 144.362 12.703 144.39 12.563 L 144.387 12.563 Z M 152.768 17.197 C 152.65 17.177 152.389 17.14 152.225 17.097 C 152.114 16.65 151.492 13.361 151.369 12.563 C 151.505 12.528 151.826 12.479 151.917 12.464 L 151.936 12.316 C 151.787 12.33 151.235 12.342 151.027 12.342 C 150.798 12.342 150.352 12.33 150.143 12.316 L 150.175 12.464 C 150.293 12.486 150.495 12.514 150.618 12.564 C 150.605 12.727 149.472 15.671 149.282 16.073 C 149.078 15.531 148.28 13.207 148.09 12.563 C 148.213 12.535 148.397 12.484 148.582 12.46 L 148.606 12.314 C 148.424 12.33 147.904 12.34 147.624 12.34 C 147.278 12.34 146.765 12.33 146.681 12.314 L 146.719 12.462 C 146.792 12.479 147.191 12.535 147.367 12.563 C 147.27 13.146 146.556 16.656 146.409 17.104 C 146.268 17.149 146.058 17.177 145.945 17.197 L 145.9 17.348 C 146.116 17.333 146.451 17.319 146.627 17.319 C 146.751 17.319 147.511 17.333 147.602 17.348 L 147.576 17.198 C 147.478 17.184 147.111 17.128 146.993 17.098 C 146.966 16.181 147.352 14.207 147.521 13.12 L 147.551 13.12 C 147.628 13.389 148.86 16.937 149.043 17.378 C 149.241 16.972 150.529 13.559 150.706 13.127 L 150.732 13.127 C 150.81 13.651 151.381 16.85 151.393 17.115 C 151.262 17.128 150.763 17.191 150.673 17.199 L 150.659 17.348 C 150.849 17.333 151.57 17.32 151.87 17.32 C 152.178 17.32 152.572 17.334 152.794 17.348 L 152.763 17.201 L 152.769 17.198 Z M 156.308 14.411 C 156.528 14.134 157.786 12.608 157.917 12.564 C 158.029 12.538 158.222 12.5 158.356 12.464 L 158.369 12.316 C 158.191 12.33 157.928 12.342 157.63 12.342 C 157.246 12.342 156.868 12.33 156.706 12.316 L 156.733 12.464 C 156.824 12.479 157.116 12.521 157.238 12.564 C 157.059 12.925 156.356 13.922 156.149 14.191 C 155.978 14 155.134 12.748 155.041 12.564 C 155.184 12.528 155.375 12.493 155.646 12.464 L 155.687 12.316 C 155.395 12.33 153.556 12.33 153.471 12.316 L 153.491 12.464 C 153.64 12.493 153.825 12.521 153.952 12.564 C 154.279 12.905 155.132 14.134 155.637 14.774 C 155.402 15.073 154.065 16.92 153.775 17.097 C 153.64 17.156 153.47 17.177 153.328 17.198 L 153.278 17.348 C 153.454 17.333 153.654 17.32 154.052 17.32 C 154.458 17.32 154.997 17.348 155.111 17.348 L 155.089 17.198 C 154.962 17.185 154.654 17.138 154.5 17.101 C 154.771 16.538 155.616 15.217 155.807 15.002 C 156.119 15.359 157.265 16.903 158.253 17.646 L 158.55 17.576 C 158.039 16.909 156.717 14.976 156.305 14.415 L 156.308 14.415 Z M 131.644 18.834 C 131.474 18.728 131.323 18.65 131.323 18.504 C 131.323 18.406 131.405 18.282 131.596 18.282 C 131.75 18.282 131.866 18.402 131.891 18.483 C 131.895 18.522 131.901 18.576 131.901 18.653 L 131.952 18.677 C 131.952 18.49 131.974 18.285 132.006 18.065 L 131.953 18.073 C 131.939 18.128 131.929 18.198 131.914 18.25 C 131.859 18.237 131.745 18.208 131.613 18.208 C 131.282 18.208 131.153 18.427 131.153 18.604 C 131.153 18.854 131.326 18.98 131.544 19.122 C 131.69 19.218 131.83 19.305 131.83 19.486 C 131.83 19.65 131.69 19.765 131.512 19.765 C 131.359 19.765 131.227 19.667 131.166 19.524 C 131.16 19.483 131.147 19.357 131.151 19.326 L 131.098 19.313 C 131.105 19.368 131.092 19.607 131.092 19.667 C 131.092 19.751 131.059 20 131.054 20.031 L 131.107 20.018 C 131.123 19.934 131.145 19.827 131.156 19.785 C 131.22 19.819 131.357 19.84 131.464 19.84 C 131.768 19.84 132.013 19.664 132.013 19.354 C 132.013 19.073 131.825 18.949 131.64 18.834 L 131.643 18.834 Z M 135.184 18.249 C 135.148 18.257 134.762 18.271 134.44 18.271 C 134.14 18.271 133.756 18.256 133.72 18.249 C 133.712 18.202 133.708 18.132 133.705 18.104 L 133.654 18.095 C 133.654 18.271 133.629 18.551 133.62 18.654 L 133.671 18.642 C 133.685 18.569 133.699 18.482 133.717 18.434 C 133.776 18.396 133.936 18.34 134.294 18.34 C 134.3 18.392 134.304 18.722 134.304 18.885 L 134.304 18.987 C 134.304 19.181 134.299 19.566 134.294 19.737 C 134.239 19.747 134.059 19.764 134.007 19.771 L 133.996 19.816 C 134.06 19.812 134.326 19.809 134.428 19.809 C 134.551 19.809 134.812 19.813 134.866 19.819 L 134.857 19.772 C 134.814 19.767 134.61 19.749 134.569 19.743 C 134.559 19.563 134.556 19.185 134.556 18.99 L 134.556 18.892 C 134.556 18.73 134.56 18.406 134.568 18.344 C 134.783 18.344 135.093 18.395 135.151 18.438 C 135.151 18.487 135.151 18.58 135.145 18.67 L 135.196 18.684 C 135.202 18.617 135.252 18.159 135.266 18.108 L 135.209 18.118 C 135.2 18.161 135.187 18.229 135.178 18.257 L 135.182 18.25 Z M 138.207 18.558 C 138.207 18.434 138.134 18.351 138.015 18.301 C 137.864 18.243 137.598 18.24 137.387 18.24 L 136.904 18.24 L 136.911 18.291 C 136.961 18.295 137.111 18.306 137.15 18.313 C 137.158 18.357 137.161 18.785 137.161 18.865 L 137.161 19 C 137.161 19.233 137.158 19.671 137.15 19.737 C 137.088 19.751 136.945 19.764 136.912 19.767 L 136.904 19.812 C 136.957 19.809 137.191 19.803 137.282 19.803 C 137.384 19.803 137.609 19.809 137.666 19.812 L 137.657 19.767 C 137.608 19.76 137.461 19.75 137.423 19.737 C 137.417 19.635 137.413 19.289 137.413 19.145 L 137.413 19.087 C 137.448 19.087 137.542 19.081 137.625 19.073 C 137.661 19.119 138.254 19.806 138.411 19.875 L 138.509 19.86 C 138.278 19.615 137.919 19.031 137.894 18.975 C 138.065 18.878 138.209 18.692 138.209 18.555 L 138.209 18.558 Z M 137.681 18.978 C 137.587 19.015 137.49 19.021 137.411 19.021 L 137.411 18.951 C 137.411 18.792 137.416 18.395 137.422 18.301 C 137.807 18.301 137.936 18.473 137.936 18.618 C 137.936 18.841 137.777 18.942 137.682 18.978 L 137.681 18.978 Z M 141.476 19.74 C 141.373 19.544 141.235 19.167 141.172 18.996 C 141.088 18.763 140.964 18.413 140.938 18.313 C 140.99 18.299 141.049 18.292 141.108 18.285 L 141.116 18.239 C 141.051 18.243 140.828 18.247 140.733 18.247 C 140.696 18.247 140.511 18.243 140.445 18.237 L 140.447 18.285 C 140.502 18.292 140.575 18.299 140.624 18.313 C 140.592 18.396 140.15 19.597 140.068 19.737 C 140.01 19.75 139.941 19.76 139.877 19.767 L 139.87 19.813 C 139.921 19.809 140.071 19.805 140.13 19.805 C 140.196 19.805 140.398 19.809 140.467 19.813 L 140.457 19.767 C 140.396 19.76 140.322 19.751 140.266 19.737 C 140.288 19.566 140.409 19.145 140.422 19.111 C 140.505 19.097 140.858 19.084 140.937 19.084 C 140.973 19.149 141.132 19.622 141.172 19.737 C 141.103 19.751 141.025 19.758 140.948 19.765 L 140.937 19.815 C 140.997 19.809 141.25 19.806 141.312 19.806 C 141.432 19.806 141.656 19.809 141.682 19.815 L 141.675 19.765 C 141.608 19.757 141.543 19.749 141.48 19.737 L 141.476 19.74 Z M 140.449 19.011 C 140.472 18.935 140.617 18.549 140.686 18.351 L 140.69 18.351 C 140.729 18.473 140.869 18.872 140.918 19.015 L 140.45 19.007 L 140.45 19.01 Z M 144.323 18.237 L 144.331 18.285 C 144.359 18.291 144.459 18.302 144.504 18.313 C 144.498 18.406 144.154 18.924 144.119 18.989 C 144.05 18.872 143.822 18.546 143.691 18.313 C 143.742 18.302 143.841 18.292 143.882 18.282 L 143.893 18.237 C 143.861 18.24 143.713 18.247 143.585 18.247 C 143.383 18.247 143.235 18.24 143.197 18.237 L 143.207 18.285 C 143.252 18.295 143.334 18.303 143.361 18.316 C 143.464 18.411 143.889 19.041 143.907 19.098 C 143.914 19.157 143.914 19.218 143.914 19.247 L 143.914 19.316 C 143.914 19.462 143.911 19.708 143.902 19.74 C 143.852 19.753 143.748 19.765 143.705 19.771 L 143.694 19.816 C 143.755 19.813 143.918 19.806 144 19.806 C 144.15 19.806 144.352 19.813 144.398 19.816 L 144.394 19.771 C 144.352 19.764 144.206 19.749 144.179 19.74 C 144.17 19.687 144.167 19.385 144.167 19.326 L 144.167 19.24 C 144.167 19.185 144.17 19.122 144.176 19.081 C 144.207 18.985 144.669 18.333 144.717 18.316 C 144.764 18.303 144.835 18.295 144.868 18.288 L 144.874 18.24 C 144.822 18.243 144.706 18.249 144.604 18.249 C 144.481 18.249 144.358 18.243 144.321 18.24 L 144.325 18.237 Z M 147.253 18.968 L 147.253 18.959 C 147.326 18.927 147.459 18.857 147.539 18.728 C 147.597 18.639 147.598 18.583 147.598 18.518 C 147.598 18.413 147.531 18.229 147.096 18.229 C 146.955 18.229 146.53 18.247 146.456 18.247 L 146.467 18.295 C 146.531 18.299 146.621 18.302 146.695 18.316 C 146.704 18.409 146.712 18.756 146.712 18.917 L 146.712 19.056 C 146.712 19.253 146.712 19.584 146.696 19.74 C 146.65 19.751 146.518 19.764 146.466 19.771 L 146.456 19.819 C 146.521 19.812 146.748 19.809 146.797 19.809 C 146.845 19.809 146.928 19.812 147.007 19.819 C 147.086 19.822 147.162 19.827 147.194 19.827 C 147.504 19.827 147.713 19.653 147.713 19.399 C 147.713 19.161 147.476 19.004 147.255 18.969 L 147.253 18.968 Z M 146.955 18.843 C 146.955 18.639 146.957 18.323 146.961 18.299 C 146.982 18.292 147.016 18.288 147.052 18.288 C 147.234 18.288 147.353 18.417 147.353 18.611 C 147.353 18.723 147.305 18.831 147.223 18.892 C 147.137 18.951 147.023 18.968 146.955 18.968 L 146.955 18.843 Z M 147.16 19.753 C 147.116 19.753 147.032 19.743 146.983 19.705 C 146.971 19.68 146.955 19.344 146.955 19.154 L 146.955 19.034 C 147.009 19.025 147.129 19.041 147.22 19.087 C 147.371 19.167 147.464 19.338 147.464 19.482 C 147.464 19.636 147.374 19.753 147.164 19.753 L 147.16 19.753 Z M 150.379 18.237 L 150.396 18.282 C 150.452 18.288 150.586 18.303 150.639 18.313 C 150.648 18.385 150.65 18.795 150.65 18.867 L 150.65 19.073 C 150.65 19.338 150.623 19.535 150.5 19.647 C 150.424 19.72 150.327 19.756 150.18 19.756 C 149.94 19.756 149.74 19.594 149.74 19.122 L 149.74 18.824 C 149.74 18.633 149.746 18.351 149.752 18.313 C 149.825 18.298 149.923 18.288 149.985 18.279 L 149.996 18.233 C 149.941 18.237 149.771 18.24 149.668 18.24 C 149.495 18.24 149.354 18.237 149.29 18.23 L 149.299 18.278 C 149.359 18.288 149.426 18.298 149.474 18.309 C 149.481 18.369 149.484 18.614 149.484 18.815 L 149.484 19.163 C 149.484 19.551 149.697 19.838 150.159 19.838 C 150.377 19.838 150.522 19.771 150.624 19.684 C 150.795 19.528 150.842 19.316 150.842 19.063 C 150.842 18.983 150.838 18.875 150.838 18.791 L 150.838 18.683 C 150.838 18.622 150.842 18.343 150.85 18.309 C 150.908 18.296 150.968 18.288 151.006 18.278 L 151.02 18.233 C 150.984 18.236 150.865 18.24 150.749 18.24 C 150.61 18.24 150.443 18.233 150.387 18.23 L 150.379 18.235 Z M 153.495 19.115 L 153.51 19.16 C 153.552 19.17 153.69 19.181 153.735 19.185 C 153.742 19.226 153.744 19.296 153.744 19.364 L 153.744 19.483 C 153.744 19.594 153.742 19.67 153.738 19.701 C 153.643 19.751 153.512 19.76 153.455 19.76 C 152.972 19.76 152.663 19.294 152.663 18.933 C 152.663 18.573 152.92 18.288 153.308 18.288 C 153.673 18.288 153.831 18.437 153.889 18.503 C 153.899 18.556 153.907 18.633 153.913 18.708 L 153.966 18.736 C 153.959 18.528 153.984 18.135 153.999 18.049 L 153.947 18.059 C 153.94 18.104 153.914 18.229 153.905 18.265 C 153.833 18.237 153.598 18.209 153.408 18.209 C 153.18 18.209 152.955 18.25 152.752 18.39 C 152.556 18.524 152.399 18.75 152.399 19.063 C 152.399 19.341 152.562 19.594 152.843 19.736 C 153.03 19.83 153.289 19.841 153.435 19.841 C 153.587 19.841 153.877 19.806 154.004 19.768 C 154.002 19.708 154.002 19.587 154.002 19.506 L 154.002 19.435 C 154.002 19.372 154.003 19.226 154.011 19.188 C 154.061 19.177 154.184 19.167 154.205 19.163 L 154.216 19.118 C 154.188 19.121 153.973 19.122 153.865 19.122 C 153.787 19.125 153.617 19.121 153.5 19.117 L 153.497 19.115 Z M 156.245 18.833 C 156.074 18.728 155.923 18.647 155.923 18.503 C 155.923 18.404 156.005 18.281 156.196 18.281 C 156.351 18.281 156.468 18.399 156.493 18.482 C 156.497 18.521 156.502 18.576 156.502 18.652 L 156.553 18.674 C 156.553 18.49 156.574 18.285 156.606 18.063 L 156.553 18.07 C 156.543 18.128 156.532 18.198 156.516 18.25 C 156.461 18.237 156.347 18.208 156.215 18.208 C 155.885 18.208 155.756 18.43 155.756 18.601 C 155.756 18.854 155.929 18.979 156.147 19.122 C 156.294 19.215 156.434 19.306 156.434 19.486 C 156.434 19.649 156.295 19.764 156.117 19.764 C 155.965 19.764 155.833 19.667 155.772 19.521 C 155.766 19.482 155.755 19.354 155.756 19.329 L 155.705 19.313 C 155.711 19.367 155.698 19.607 155.698 19.667 C 155.698 19.754 155.667 20 155.661 20.032 L 155.713 20.018 C 155.73 19.935 155.752 19.829 155.762 19.786 C 155.827 19.819 155.965 19.844 156.072 19.844 C 156.375 19.844 156.622 19.667 156.622 19.357 C 156.622 19.073 156.434 18.951 156.25 18.834 L 156.245 18.834 Z M 132.185 11.347 L 132.185 10.089 L 132.91 11.349 L 133.578 11.349 L 132.289 9.113 L 143.668 2.537 L 143.668 11.347 L 144.247 11.347 L 144.247 2.488 L 155.708 9.111 L 154.419 11.347 L 155.086 11.347 L 155.813 10.087 L 155.813 11.347 L 156.393 11.347 L 156.393 8.842 L 144 1.675 L 131.605 8.842 L 131.605 11.347 M 155.813 20.656 L 155.813 22.827 L 144.79 29.199 L 149.719 20.653 L 149.052 20.653 L 144.251 28.982 L 144.251 20.653 L 143.671 20.653 L 143.671 28.838 L 138.95 20.656 L 138.283 20.656 L 143.211 29.201 L 132.186 22.83 L 132.186 20.656 L 131.606 20.656 L 131.606 23.163 L 143.998 30.324 L 156.392 23.166 L 156.392 20.656"/>
</svg>
