<?xml version="1.0" encoding="utf-8"?>
<svg width="160" height="32" viewBox="0 0 160 32" fill="#fff" xmlns="http://www.w3.org/2000/svg">
  <path class="icon-weibo" d="M 31.015 14.392 C 31.015 14.393 31.015 14.395 31.015 14.397 C 30.83 15.016 30.152 15.355 29.536 15.156 C 28.918 14.955 28.579 14.289 28.764 13.668 L 28.764 13.668 C 29.381 11.76 29.011 9.584 27.563 7.99 C 26.114 6.395 23.987 5.786 22.044 6.202 C 21.397 6.338 20.781 5.93 20.627 5.293 C 20.504 4.657 20.904 4.029 21.551 3.891 L 21.551 3.891 C 24.295 3.305 27.285 4.161 29.32 6.408 C 31.323 8.651 31.878 11.71 31.015 14.392 Z M 22.846 9.98 L 22.846 9.979 C 22.292 10.098 21.767 9.747 21.644 9.199 C 21.52 8.649 21.859 8.109 22.415 7.993 C 23.77 7.705 25.219 8.122 26.206 9.215 C 27.192 10.308 27.47 11.799 27.038 13.106 C 26.853 13.639 26.299 13.931 25.744 13.762 C 25.219 13.588 24.942 13.014 25.096 12.481 L 25.096 12.481 C 25.312 11.842 25.189 11.113 24.696 10.579 C 24.203 10.044 23.493 9.841 22.846 9.98 Z M 23.247 11.881 C 23.77 12.643 23.74 13.713 23.247 14.953 C 23 15.523 23.308 15.611 23.74 15.741 C 25.528 16.289 27.47 17.617 27.47 19.953 C 27.47 23.822 21.921 28.696 13.537 28.696 C 7.125 28.696 0.59 25.594 0.59 20.493 C 0.59 17.828 2.285 14.745 5.183 11.835 C 9.067 7.952 13.599 6.183 15.294 7.888 C 16.065 8.639 16.126 9.939 15.633 11.492 C 15.387 12.274 16.373 11.84 16.373 11.843 C 19.517 10.528 22.261 10.451 23.247 11.881 Z M 22.168 19.883 C 21.859 16.533 17.452 14.224 12.335 14.729 C 7.248 15.235 3.365 18.36 3.704 21.71 C 4.042 25.063 8.451 27.369 13.537 26.866 C 18.653 26.362 22.507 23.234 22.168 19.882 Z M 10.239 25.427 C 7.772 24.635 6.756 22.211 7.834 20.028 C 8.882 17.886 11.625 16.676 14.061 17.308 C 16.557 17.958 17.852 20.331 16.804 22.633 C 15.787 24.99 12.766 26.247 10.239 25.427 Z M 11.625 20.839 C 10.824 20.507 9.807 20.848 9.314 21.613 C 8.821 22.38 9.067 23.296 9.837 23.654 C 10.639 24.017 11.687 23.672 12.181 22.885 C 12.674 22.089 12.427 21.18 11.625 20.839 Z M 13.568 20.031 C 13.259 19.911 12.889 20.056 12.704 20.356 C 12.55 20.653 12.643 20.995 12.951 21.121 C 13.259 21.248 13.63 21.102 13.815 20.796 C 13.999 20.489 13.876 20.144 13.568 20.031 Z"/>
  <path class="icon-github" d="M 59.783 13.373 C 59.895 12.665 59.97 11.845 59.97 10.95 C 59.97 7.111 58.143 5.769 57.77 5.135 C 58.293 2.228 57.696 0.923 57.397 0.475 C 56.353 0.102 53.781 1.444 52.365 2.339 C 50.053 1.668 45.209 1.743 43.419 2.525 C 40.063 0.14 38.275 0.475 38.275 0.475 C 38.275 0.475 37.119 2.525 37.976 5.544 C 36.859 6.961 36.038 7.93 36.038 10.576 C 36.038 11.21 36.075 11.806 36.151 12.365 C 37.156 17.397 41.11 19.559 45.021 19.932 C 44.425 20.379 43.716 21.237 43.642 22.206 C 42.897 22.691 41.444 22.84 40.288 22.467 C 38.684 21.945 38.051 18.777 35.627 19.224 C 35.105 19.336 35.217 19.671 35.665 19.969 C 36.409 20.454 37.082 21.05 37.641 22.317 C 38.05 23.286 38.907 25.038 41.628 25.038 C 42.71 25.038 43.454 24.926 43.454 24.926 C 43.454 24.926 43.492 27.424 43.492 28.392 C 43.492 29.51 42.001 29.809 42.001 30.368 C 42.001 30.592 42.486 30.592 42.895 30.592 C 43.68 30.592 45.319 29.921 45.319 28.766 L 45.319 24.219 C 45.319 23.026 45.953 22.653 45.953 22.653 C 45.953 22.653 46.028 28.99 45.805 29.81 C 45.543 30.816 45.059 30.667 45.059 31.115 C 45.059 31.786 47.035 31.264 47.706 29.81 C 48.227 28.692 48.003 22.467 48.003 22.467 L 48.525 22.467 L 48.525 26.605 C 48.489 27.947 48.378 29.662 49.159 30.444 C 49.683 30.966 51.285 31.898 51.285 31.04 C 51.285 30.555 50.167 30.145 50.167 28.804 L 50.167 22.654 C 50.837 22.654 50.988 24.667 50.988 24.667 L 51.248 28.395 C 51.248 28.395 51.099 29.774 52.702 30.333 C 53.261 30.519 54.529 30.594 54.567 30.258 C 54.642 29.922 53.075 29.401 53.075 28.357 C 53.075 27.723 53.113 27.351 53.113 24.555 C 53.113 21.759 52.739 20.716 51.435 19.895 C 55.163 19.522 59.076 17.808 59.785 13.372 Z"/>
  <path class="icon-mail" d="M 83.714 17.12 C 83.674 17.038 83.594 17 83.474 17.078 L 80.8 18.635 C 80.48 18.835 80.122 18.835 79.8 18.635 L 77.485 17.317 C 77.405 17.277 77.325 17.277 77.245 17.317 L 68.34 25.543 C 68.3 25.583 68.3 25.623 68.3 25.743 C 68.3 25.783 68.34 25.823 68.38 25.903 C 68.58 25.943 68.7 25.983 68.78 25.983 L 91.502 25.983 C 91.542 25.983 91.622 25.943 91.7 25.903 C 91.7 25.783 91.7 25.703 91.66 25.663 L 83.714 17.118 Z M 75.01 16.36 C 75.05 16.32 75.05 16.28 75.05 16.2 C 75.05 16.12 75.01 16.04 74.97 16.04 L 68.06 12.09 C 67.98 12.05 67.9 12.05 67.82 12.09 C 67.78 12.09 67.74 12.13 67.74 12.25 L 67.74 22.67 C 67.74 22.752 67.78 22.832 67.9 22.87 L 67.98 22.87 C 68.02 22.87 68.06 22.87 68.06 22.832 L 75.01 16.362 Z M 92.14 11.888 L 91.94 11.888 L 85.35 15.8 C 85.31 15.8 85.27 15.84 85.27 15.96 C 85.23 16 85.27 16.04 85.31 16.12 L 91.9 23.228 C 91.94 23.268 92.02 23.308 92.06 23.308 L 92.14 23.308 C 92.22 23.228 92.3 23.148 92.3 23.108 L 92.3 12.088 C 92.3 12.008 92.26 11.928 92.14 11.888 Z M 91.5 6.017 L 68.5 6.017 C 68.26 6.017 68.102 6.097 67.9 6.217 C 67.742 6.377 67.66 6.577 67.66 6.817 L 67.66 9.37 C 67.66 9.49 67.702 9.57 67.82 9.57 L 79.96 16.478 C 80 16.478 80.08 16.478 80.12 16.438 L 91.82 9.61 C 91.86 9.57 91.94 9.57 91.98 9.57 C 92.02 9.57 92.06 9.57 92.138 9.53 C 92.258 9.53 92.338 9.49 92.338 9.33 L 92.338 6.857 C 92.338 6.617 92.258 6.377 92.098 6.257 C 91.898 6.097 91.698 6.017 91.5 6.017 Z"/>
  <path class="icon-rss" d="M 111.363 16.241 C 107.651 12.849 101.014 12.053 101.014 12.053 C 100.267 12.053 99.66 12.559 99.66 13.287 L 99.66 15.597 C 99.66 16.321 100.267 16.828 101.014 16.832 C 101.014 16.832 105.279 16.943 107.842 19.255 C 111.224 22.309 111.13 26.543 111.13 26.543 C 111.13 27.274 111.482 27.864 112.231 27.864 L 114.855 27.864 C 115.602 27.864 115.785 27.274 115.785 26.543 C 115.785 26.543 115.161 19.709 111.363 16.243 Z M 103.172 21.404 C 101.319 21.404 99.815 22.869 99.815 24.672 C 99.815 26.481 101.319 27.942 103.172 27.942 C 105.028 27.942 106.531 26.481 106.531 24.672 C 106.531 22.869 105.028 21.404 103.172 21.404 Z M 118.006 11.656 C 112.166 4.799 101.015 4.058 101.015 4.058 C 100.27 4.058 99.661 4.566 99.661 5.296 L 99.661 7.602 C 99.661 8.331 100.27 8.836 101.015 8.836 C 101.015 8.836 108.984 9.088 113.479 14.258 C 119.639 20.427 119.172 26.595 119.172 26.595 C 119.172 27.325 119.777 27.914 120.527 27.914 L 123.149 27.914 C 123.898 27.914 124.335 27.325 124.335 26.595 C 124.335 26.595 123.78 16.893 118.006 11.656 Z"/>
  <path class="icon-logo" d="M 134.103 16.739 C 133.57 17.053 132.894 17.144 132.323 17.144 C 130.74 17.144 129.533 15.905 129.533 14.44 C 129.533 13.271 130.395 12.28 131.761 12.28 C 132.73 12.28 133.427 12.82 133.57 13.149 C 133.592 13.278 133.616 13.63 133.616 13.773 L 133.789 13.826 C 133.797 13.113 133.841 12.332 133.953 11.507 L 133.779 11.545 C 133.758 11.635 133.668 12.115 133.623 12.212 C 133.412 12.153 132.716 12.019 132.055 12.019 C 131.297 12.019 130.599 12.116 129.818 12.64 C 129.158 13.084 128.635 13.85 128.635 14.885 C 128.635 15.845 129.212 16.702 130.188 17.18 C 130.796 17.482 131.614 17.514 131.891 17.514 C 133.071 17.514 133.829 17.206 134.001 17.061 L 134.106 16.739 L 134.104 16.739 Z M 139.141 14.598 C 139.831 14.277 140.401 13.652 140.401 13.179 C 140.401 12.766 140.107 12.481 139.634 12.323 C 139.028 12.122 137.963 12.113 137.113 12.113 L 135.184 12.12 L 135.21 12.278 C 135.407 12.296 136.014 12.339 136.166 12.37 C 136.202 12.513 136.211 13.954 136.211 14.224 L 136.211 14.682 C 136.211 15.47 136.201 16.943 136.166 17.16 C 135.916 17.213 135.345 17.257 135.22 17.265 L 135.184 17.422 C 135.39 17.408 136.327 17.394 136.694 17.394 C 137.105 17.394 138.007 17.408 138.231 17.422 L 138.195 17.267 C 137.999 17.251 137.409 17.2 137.256 17.16 C 137.231 16.819 137.213 15.66 137.213 15.174 L 137.213 14.979 C 137.364 14.979 137.733 14.958 138.071 14.935 C 138.214 15.093 140.592 17.397 141.217 17.637 L 141.609 17.585 C 140.68 16.76 139.242 14.795 139.143 14.606 L 139.143 14.598 Z M 138.302 14.598 C 137.917 14.718 137.532 14.742 137.212 14.742 L 137.212 14.508 C 137.212 13.976 137.231 12.632 137.257 12.324 C 138.803 12.324 139.322 12.909 139.322 13.389 C 139.322 14.134 138.687 14.479 138.302 14.598 Z M 144.41 12.37 C 144.679 12.34 145.047 12.28 145.198 12.263 L 145.235 12.108 C 145.107 12.123 144.462 12.136 144.08 12.136 C 143.487 12.136 142.796 12.123 142.654 12.108 L 142.692 12.264 C 142.837 12.281 143.331 12.341 143.481 12.37 C 143.51 12.625 143.52 14.03 143.52 14.275 L 143.52 14.718 C 143.52 15.454 143.51 16.844 143.481 17.159 C 143.323 17.187 142.814 17.257 142.685 17.261 L 142.657 17.421 C 142.881 17.407 143.571 17.392 143.827 17.392 C 144.292 17.392 145.073 17.408 145.238 17.421 L 145.199 17.261 C 145.05 17.248 144.6 17.204 144.413 17.159 C 144.383 17.009 144.375 15.754 144.375 14.778 L 144.375 14.313 C 144.375 13.389 144.383 12.518 144.413 12.37 L 144.41 12.37 Z M 153.261 17.263 C 153.136 17.244 152.861 17.205 152.687 17.16 C 152.57 16.687 151.913 13.212 151.783 12.37 C 151.927 12.333 152.266 12.281 152.363 12.266 L 152.382 12.109 C 152.224 12.124 151.642 12.137 151.422 12.137 C 151.18 12.137 150.71 12.123 150.489 12.109 L 150.522 12.266 C 150.647 12.289 150.86 12.319 150.99 12.371 C 150.977 12.544 149.78 15.653 149.579 16.078 C 149.364 15.506 148.521 13.052 148.32 12.37 C 148.451 12.34 148.645 12.287 148.84 12.263 L 148.865 12.108 C 148.673 12.123 148.124 12.136 147.828 12.136 C 147.462 12.136 146.922 12.123 146.832 12.108 L 146.873 12.264 C 146.95 12.281 147.371 12.341 147.557 12.37 C 147.454 12.986 146.7 16.693 146.546 17.167 C 146.396 17.213 146.174 17.244 146.056 17.263 L 146.008 17.424 C 146.235 17.408 146.589 17.394 146.775 17.394 C 146.906 17.394 147.709 17.408 147.805 17.424 L 147.778 17.264 C 147.674 17.251 147.287 17.191 147.162 17.161 C 147.133 16.191 147.541 14.107 147.72 12.958 L 147.751 12.958 C 147.833 13.243 149.134 16.989 149.327 17.455 C 149.536 17.027 150.897 13.423 151.084 12.965 L 151.111 12.965 C 151.193 13.52 151.796 16.898 151.808 17.177 C 151.67 17.191 151.144 17.258 151.048 17.267 L 151.034 17.424 C 151.234 17.408 151.996 17.395 152.313 17.395 C 152.638 17.395 153.054 17.41 153.289 17.424 L 153.255 17.268 L 153.262 17.264 Z M 156.999 14.322 C 157.232 14.03 158.56 12.417 158.698 12.371 C 158.817 12.343 159.02 12.304 159.162 12.266 L 159.176 12.109 C 158.988 12.124 158.71 12.137 158.395 12.137 C 157.989 12.137 157.591 12.123 157.419 12.109 L 157.448 12.266 C 157.544 12.282 157.852 12.327 157.981 12.371 C 157.792 12.754 157.05 13.805 156.832 14.09 C 156.651 13.887 155.759 12.567 155.661 12.371 C 155.812 12.333 156.014 12.296 156.3 12.266 L 156.344 12.109 C 156.036 12.124 154.093 12.124 154.003 12.109 L 154.025 12.266 C 154.181 12.296 154.377 12.327 154.512 12.371 C 154.856 12.731 155.757 14.03 156.291 14.705 C 156.043 15.022 154.631 16.973 154.325 17.16 C 154.181 17.221 154.002 17.244 153.852 17.264 L 153.799 17.424 C 153.985 17.408 154.197 17.395 154.616 17.395 C 155.045 17.395 155.615 17.424 155.735 17.424 L 155.712 17.264 C 155.578 17.252 155.253 17.201 155.09 17.163 C 155.376 16.569 156.268 15.173 156.47 14.946 C 156.8 15.324 158.01 16.953 159.053 17.739 L 159.367 17.664 C 158.827 16.96 157.431 14.919 156.996 14.327 L 156.999 14.327 Z M 130.953 18.994 C 130.773 18.881 130.613 18.8 130.613 18.645 C 130.613 18.54 130.7 18.41 130.902 18.41 C 131.065 18.41 131.187 18.536 131.213 18.623 C 131.217 18.664 131.223 18.721 131.223 18.802 L 131.277 18.828 C 131.277 18.631 131.3 18.413 131.335 18.18 L 131.279 18.189 C 131.264 18.249 131.254 18.322 131.237 18.377 C 131.179 18.363 131.058 18.333 130.919 18.333 C 130.57 18.333 130.433 18.564 130.433 18.75 C 130.433 19.015 130.616 19.148 130.847 19.298 C 131.001 19.398 131.149 19.49 131.149 19.682 C 131.149 19.856 131.001 19.977 130.812 19.977 C 130.651 19.977 130.512 19.872 130.447 19.722 C 130.441 19.679 130.427 19.545 130.431 19.513 L 130.375 19.499 C 130.383 19.557 130.369 19.809 130.369 19.872 C 130.369 19.963 130.335 20.225 130.33 20.257 L 130.385 20.244 C 130.402 20.156 130.425 20.043 130.437 19.997 C 130.504 20.033 130.649 20.056 130.762 20.056 C 131.083 20.056 131.342 19.87 131.342 19.543 C 131.342 19.245 131.144 19.115 130.948 18.994 L 130.951 18.994 Z M 134.691 18.375 C 134.653 18.383 134.246 18.399 133.905 18.399 C 133.588 18.399 133.182 18.382 133.145 18.375 C 133.136 18.326 133.132 18.252 133.129 18.222 L 133.075 18.213 C 133.075 18.398 133.049 18.694 133.039 18.804 L 133.093 18.79 C 133.108 18.713 133.122 18.621 133.141 18.57 C 133.204 18.53 133.372 18.471 133.75 18.471 C 133.758 18.526 133.762 18.875 133.762 19.048 L 133.762 19.155 C 133.762 19.36 133.757 19.766 133.75 19.947 C 133.693 19.956 133.502 19.976 133.448 19.982 L 133.436 20.03 C 133.503 20.026 133.785 20.023 133.893 20.023 C 134.022 20.023 134.297 20.027 134.355 20.033 L 134.345 19.984 C 134.3 19.979 134.085 19.959 134.041 19.953 C 134.031 19.763 134.028 19.365 134.028 19.158 L 134.028 19.055 C 134.028 18.884 134.032 18.541 134.04 18.476 C 134.267 18.476 134.594 18.529 134.656 18.576 C 134.656 18.627 134.656 18.725 134.649 18.82 L 134.703 18.834 C 134.71 18.764 134.763 18.28 134.777 18.226 L 134.717 18.236 C 134.708 18.283 134.694 18.354 134.685 18.383 L 134.689 18.376 Z M 137.883 18.701 C 137.883 18.57 137.806 18.482 137.681 18.43 C 137.521 18.369 137.24 18.366 137.017 18.366 L 136.507 18.366 L 136.515 18.419 C 136.567 18.423 136.726 18.436 136.767 18.444 C 136.776 18.489 136.779 18.941 136.779 19.025 L 136.779 19.169 C 136.779 19.415 136.776 19.877 136.767 19.947 C 136.702 19.963 136.55 19.976 136.516 19.979 L 136.507 20.026 C 136.563 20.023 136.81 20.017 136.906 20.017 C 137.014 20.017 137.252 20.023 137.312 20.026 L 137.303 19.979 C 137.251 19.972 137.095 19.96 137.055 19.947 C 137.049 19.84 137.044 19.475 137.044 19.321 L 137.044 19.261 C 137.082 19.261 137.181 19.255 137.269 19.246 C 137.307 19.295 137.933 20.02 138.098 20.093 L 138.202 20.076 C 137.958 19.817 137.579 19.201 137.553 19.141 C 137.734 19.04 137.885 18.843 137.885 18.698 L 137.885 18.701 Z M 137.328 19.145 C 137.228 19.185 137.126 19.191 137.042 19.191 L 137.042 19.118 C 137.042 18.949 137.048 18.529 137.054 18.43 C 137.461 18.43 137.597 18.613 137.597 18.765 C 137.597 19.001 137.43 19.108 137.329 19.145 L 137.328 19.145 Z M 141.335 19.949 C 141.227 19.742 141.081 19.346 141.014 19.164 C 140.926 18.917 140.795 18.55 140.767 18.443 C 140.822 18.429 140.885 18.421 140.947 18.414 L 140.955 18.364 C 140.887 18.369 140.651 18.373 140.551 18.373 C 140.512 18.373 140.317 18.369 140.247 18.363 L 140.249 18.413 C 140.307 18.42 140.384 18.429 140.436 18.443 C 140.402 18.531 139.936 19.799 139.849 19.947 C 139.787 19.961 139.715 19.972 139.647 19.979 L 139.64 20.027 C 139.694 20.024 139.852 20.018 139.914 20.018 C 139.983 20.018 140.197 20.024 140.27 20.027 L 140.26 19.979 C 140.195 19.972 140.116 19.963 140.058 19.947 C 140.081 19.766 140.209 19.321 140.222 19.286 C 140.31 19.271 140.683 19.258 140.766 19.258 C 140.805 19.325 140.972 19.825 141.014 19.947 C 140.942 19.963 140.86 19.97 140.778 19.977 L 140.766 20.029 C 140.83 20.023 141.096 20.02 141.163 20.02 C 141.289 20.02 141.525 20.023 141.553 20.029 L 141.546 19.977 C 141.475 19.968 141.407 19.959 141.339 19.947 L 141.335 19.949 Z M 140.251 19.181 C 140.275 19.101 140.429 18.693 140.501 18.483 L 140.506 18.483 C 140.547 18.613 140.695 19.032 140.747 19.185 L 140.252 19.176 L 140.252 19.179 Z M 144.343 18.363 L 144.351 18.413 C 144.38 18.419 144.486 18.432 144.534 18.444 C 144.527 18.54 144.164 19.088 144.127 19.156 C 144.054 19.033 143.813 18.69 143.675 18.444 C 143.728 18.432 143.833 18.421 143.877 18.411 L 143.888 18.363 C 143.855 18.366 143.698 18.373 143.563 18.373 C 143.349 18.373 143.193 18.366 143.153 18.363 L 143.163 18.413 C 143.211 18.423 143.297 18.433 143.326 18.446 C 143.435 18.547 143.884 19.211 143.903 19.272 C 143.91 19.335 143.91 19.398 143.91 19.429 L 143.91 19.503 C 143.91 19.656 143.907 19.916 143.897 19.949 C 143.844 19.964 143.735 19.977 143.69 19.983 L 143.678 20.03 C 143.743 20.027 143.915 20.021 144.001 20.021 C 144.16 20.021 144.373 20.027 144.422 20.03 L 144.417 19.983 C 144.373 19.976 144.218 19.959 144.19 19.95 C 144.181 19.893 144.178 19.575 144.178 19.513 L 144.178 19.422 C 144.178 19.365 144.181 19.298 144.187 19.255 C 144.22 19.152 144.707 18.464 144.758 18.447 C 144.808 18.433 144.883 18.423 144.918 18.416 L 144.924 18.366 C 144.869 18.37 144.747 18.375 144.639 18.375 C 144.509 18.375 144.379 18.37 144.34 18.366 L 144.345 18.363 Z M 147.436 19.134 L 147.436 19.126 C 147.513 19.092 147.654 19.017 147.739 18.881 C 147.8 18.786 147.801 18.728 147.801 18.66 C 147.801 18.55 147.73 18.354 147.27 18.354 C 147.122 18.354 146.673 18.373 146.594 18.373 L 146.607 18.423 C 146.674 18.429 146.769 18.432 146.847 18.446 C 146.857 18.543 146.865 18.91 146.865 19.081 L 146.865 19.228 C 146.865 19.435 146.865 19.786 146.848 19.949 C 146.8 19.963 146.66 19.976 146.605 19.982 L 146.595 20.033 C 146.663 20.026 146.903 20.023 146.955 20.023 C 147.006 20.023 147.093 20.026 147.177 20.033 C 147.26 20.036 147.34 20.043 147.374 20.043 C 147.701 20.043 147.922 19.859 147.922 19.59 C 147.922 19.339 147.672 19.174 147.439 19.135 L 147.436 19.134 Z M 147.122 19.002 C 147.122 18.787 147.124 18.453 147.128 18.429 C 147.15 18.42 147.186 18.416 147.225 18.416 C 147.417 18.416 147.542 18.553 147.542 18.757 C 147.542 18.877 147.491 18.991 147.405 19.054 C 147.314 19.118 147.193 19.134 147.122 19.134 L 147.122 19.002 Z M 147.338 19.964 C 147.292 19.964 147.203 19.952 147.151 19.914 C 147.139 19.886 147.122 19.533 147.122 19.331 L 147.122 19.204 C 147.179 19.195 147.306 19.211 147.401 19.261 C 147.561 19.345 147.66 19.526 147.66 19.677 C 147.66 19.841 147.564 19.964 147.343 19.964 L 147.338 19.964 Z M 150.738 18.363 L 150.755 18.41 C 150.815 18.416 150.957 18.433 151.012 18.443 C 151.022 18.52 151.024 18.951 151.024 19.027 L 151.024 19.245 C 151.024 19.526 150.995 19.733 150.866 19.853 C 150.786 19.929 150.683 19.967 150.528 19.967 C 150.274 19.967 150.063 19.795 150.063 19.298 L 150.063 18.984 C 150.063 18.781 150.069 18.483 150.075 18.443 C 150.152 18.426 150.256 18.416 150.321 18.407 L 150.333 18.359 C 150.275 18.363 150.095 18.366 149.987 18.366 C 149.804 18.366 149.655 18.363 149.588 18.356 L 149.597 18.406 C 149.66 18.416 149.732 18.426 149.782 18.44 C 149.789 18.503 149.793 18.76 149.793 18.972 L 149.793 19.341 C 149.793 19.75 150.017 20.054 150.505 20.054 C 150.736 20.054 150.888 19.983 150.996 19.89 C 151.177 19.727 151.227 19.502 151.227 19.235 C 151.227 19.151 151.223 19.037 151.223 18.947 L 151.223 18.833 C 151.223 18.77 151.227 18.474 151.235 18.44 C 151.296 18.425 151.36 18.416 151.4 18.406 L 151.415 18.359 C 151.376 18.362 151.251 18.366 151.128 18.366 C 150.982 18.366 150.805 18.359 150.746 18.356 L 150.738 18.36 Z M 154.029 19.291 L 154.044 19.338 C 154.089 19.348 154.234 19.36 154.282 19.365 C 154.289 19.408 154.291 19.482 154.291 19.553 L 154.291 19.679 C 154.291 19.795 154.289 19.876 154.285 19.91 C 154.185 19.963 154.046 19.972 153.986 19.972 C 153.476 19.972 153.149 19.479 153.149 19.097 C 153.149 18.718 153.421 18.416 153.832 18.416 C 154.217 18.416 154.384 18.574 154.445 18.644 C 154.455 18.7 154.464 18.781 154.47 18.86 L 154.526 18.89 C 154.519 18.67 154.545 18.255 154.56 18.163 L 154.506 18.175 C 154.498 18.222 154.471 18.354 154.462 18.393 C 154.386 18.363 154.138 18.334 153.936 18.334 C 153.696 18.334 153.458 18.376 153.244 18.525 C 153.037 18.666 152.871 18.904 152.871 19.235 C 152.871 19.53 153.044 19.796 153.34 19.946 C 153.538 20.046 153.811 20.057 153.965 20.057 C 154.125 20.057 154.432 20.02 154.567 19.98 C 154.564 19.916 154.564 19.789 154.564 19.702 L 154.564 19.628 C 154.564 19.562 154.566 19.406 154.574 19.368 C 154.627 19.356 154.757 19.344 154.778 19.341 L 154.79 19.294 C 154.761 19.296 154.533 19.298 154.419 19.298 C 154.337 19.301 154.157 19.296 154.034 19.292 L 154.031 19.291 Z M 156.932 18.992 C 156.752 18.881 156.593 18.797 156.593 18.644 C 156.593 18.539 156.679 18.409 156.881 18.409 C 157.045 18.409 157.168 18.534 157.194 18.621 C 157.199 18.663 157.204 18.72 157.204 18.801 L 157.258 18.824 C 157.258 18.631 157.28 18.413 157.314 18.179 L 157.259 18.187 C 157.247 18.249 157.236 18.322 157.219 18.376 C 157.161 18.363 157.04 18.333 156.901 18.333 C 156.553 18.333 156.417 18.566 156.417 18.748 C 156.417 19.014 156.599 19.147 156.83 19.298 C 156.984 19.396 157.132 19.491 157.132 19.682 C 157.132 19.854 156.985 19.976 156.798 19.976 C 156.637 19.976 156.498 19.873 156.433 19.72 C 156.427 19.677 156.416 19.543 156.417 19.515 L 156.363 19.498 C 156.369 19.556 156.355 19.809 156.355 19.873 C 156.355 19.966 156.322 20.224 156.316 20.258 L 156.371 20.244 C 156.389 20.157 156.412 20.044 156.423 19.999 C 156.491 20.034 156.637 20.06 156.75 20.06 C 157.07 20.06 157.331 19.873 157.331 19.545 C 157.331 19.246 157.132 19.117 156.938 18.994 L 156.933 18.994 Z M 131.523 11.086 L 131.523 9.757 L 132.29 11.088 L 132.995 11.088 L 131.634 8.728 L 143.65 1.783 L 143.65 11.087 L 144.262 11.087 L 144.262 1.731 L 156.366 8.726 L 155.005 11.086 L 155.709 11.086 L 156.477 9.756 L 156.477 11.087 L 157.089 11.087 L 157.089 8.44 L 144.001 0.873 L 130.911 8.44 L 130.911 11.086 M 156.477 20.918 L 156.477 23.211 L 144.836 29.94 L 150.041 20.915 L 149.336 20.915 L 144.266 29.71 L 144.266 20.915 L 143.653 20.915 L 143.653 29.558 L 138.668 20.918 L 137.963 20.918 L 143.168 29.941 L 131.524 23.214 L 131.524 20.918 L 130.912 20.918 L 130.912 23.564 L 143.999 31.128 L 157.088 23.567 L 157.088 20.918"/>
</svg>
