<svg style="position: absolute; width: 0; height: 0; overflow: hidden;" version="1.1" xmlns="http://www.w3.org/2000/svg" xmlns:xlink="http://www.w3.org/1999/xlink">
<defs>
<symbol id="icon-heart" viewBox="0 0 32 32">
<title>heart</title>
<path class="icon-path" d="M23.6 2c-3.363 0-6.258 2.736-7.599 5.594-1.342-2.858-4.237-5.594-7.601-5.594-4.637 0-8.4 3.764-8.4 8.401 0 9.433 9.516 11.906 16.001 21.232 6.13-9.268 15.999-12.1 15.999-21.232 0-4.637-3.763-8.401-8.4-8.401z"></path>
</symbol>
<symbol id="icon-chevron-down" viewBox="0 0 32 32">
<title>chevron down</title>
<path class="icon-path" d="M.045 8.443c0-.215.082-.43.246-.594.33-.33.86-.33 1.19 0L16 22.37 30.52 7.85c.33-.33.86-.33 1.19 0s.327.86 0 1.186L16.593 24.152c-.328.326-.86.326-1.188 0L.29 9.036c-.163-.163-.245-.378-.245-.593z"/>
</symbol>
<symbol id="icon-quote" viewBox="0 0 32 32">
<title>quote</title>
<path d="M16 1.204c8.15 0 14.796 6.646 14.796 14.796S24.15 30.796 16 30.796 1.204 24.15 1.204 16 7.85 1.204 16 1.204m0-1.087C7.223.117.117 7.223.117 16S7.223 31.883 16 31.883 31.883 24.777 31.883 16 24.777.117 16 .117z"/>
<path d="M16 1.956C8.226 1.956 1.956 8.226 1.956 16S8.226 30.044 16 30.044 30.044 23.774 30.044 16 23.774 1.956 16 1.956zm-3.887 13.92c.836 0 1.505.207 2.006.626.5.418.75 1.044.75 1.84 0 .584-.21 1.127-.67 1.63-.46.5-1.045.752-1.798.752-1.17 0-2.048-.377-2.55-1.17S9.1 17.756 9.1 16.502c0-.878.21-1.714.586-2.424.375-.752.835-1.38 1.42-1.965.543-.585 1.17-1.086 1.797-1.504.626-.42 1.17-.757 1.588-1.008l.754 1.212c-.627.376-1.17.67-1.546.96-.418.252-.794.628-1.21 1.046-.378.42-.67.837-.88 1.297-.21.46-.334 1.043-.418 1.754h.92zm7.65 0c.835 0 1.504.207 2.005.626.502.418.752 1.044.752 1.84 0 .584-.208 1.127-.668 1.63-.418.5-1.045.752-1.798.752-1.17 0-2.048-.377-2.55-1.17-.5-.795-.752-1.798-.752-3.052 0-.878.21-1.714.586-2.424.376-.752.836-1.38 1.42-1.965.544-.585 1.17-1.086 1.8-1.504.625-.42 1.17-.757 1.587-1.008l.752 1.212c-.627.376-1.17.67-1.547.96-.417.252-.793.628-1.212 1.046-.418.42-.71.878-.877 1.297-.163.416-.33 1.002-.414 1.754h.92z"/>
</symbol>
<symbol id="icon-github" viewBox="0 0 32 32">
<title>github</title>
<path class="icon-path" d="M27.779 14.169c0.112-0.708 0.186-1.528 0.186-2.423 0-3.839-1.826-5.181-2.199-5.815 0.522-2.907-0.075-4.212-0.373-4.66-1.044-0.373-3.616 0.969-5.032 1.864-2.311-0.671-7.157-0.596-8.946 0.186-3.355-2.385-5.144-2.050-5.144-2.050s-1.155 2.050-0.298 5.069c-1.118 1.417-1.938 2.386-1.938 5.032 0 0.634 0.037 1.23 0.112 1.789 1.006 5.032 4.958 7.194 8.871 7.567-0.596 0.447-1.305 1.305-1.379 2.274-0.745 0.485-2.199 0.634-3.355 0.261-1.603-0.522-2.236-3.69-4.66-3.243-0.522 0.112-0.41 0.447 0.037 0.745 0.745 0.485 1.417 1.081 1.976 2.348 0.41 0.969 1.267 2.721 3.988 2.721 1.081 0 1.826-0.112 1.826-0.112s0.037 2.498 0.037 3.466c0 1.118-1.491 1.417-1.491 1.976 0 0.224 0.485 0.224 0.895 0.224 0.783 0 2.423-0.671 2.423-1.826v-4.547c0-1.193 0.634-1.566 0.634-1.566s0.075 6.337-0.149 7.157c-0.261 1.006-0.745 0.857-0.745 1.305 0 0.671 1.976 0.149 2.647-1.305 0.522-1.118 0.298-7.343 0.298-7.343h0.522v4.138c-0.037 1.342-0.149 3.057 0.634 3.839 0.522 0.522 2.125 1.454 2.125 0.596 0-0.485-1.118-0.895-1.118-2.236v-6.15c0.671 0 0.82 2.013 0.82 2.013l0.261 3.728s-0.149 1.379 1.454 1.938c0.559 0.186 1.826 0.261 1.864-0.075 0.075-0.336-1.491-0.857-1.491-1.901 0-0.634 0.037-1.006 0.037-3.802s-0.373-3.839-1.677-4.66c3.728-0.373 7.641-2.087 8.35-6.523z"></path>
</symbol>
<symbol id="icon-codepen" viewBox="0 0 32 32">
<title>codepen</title>
<path class="icon-path" d="M17.050 1.259c-0.882-0.546-2.016-0.546-2.855 0.042l-12.764 8.649c-0.672 0.462-1.092 1.218-1.092 2.016v9.321c0 0.84 0.42 1.596 1.134 2.057l12.974 8.355c0.84 0.546 1.931 0.546 2.813 0l13.226-8.482c0.714-0.462 1.134-1.218 1.134-2.057v-9.153c0-0.84-0.42-1.596-1.134-2.057l-13.436-8.691zM26.959 11.378l-4.87 3.191-4.576-3.233-0.042-6.382 9.489 6.424zM14.11 4.954v6.256l-4.702 3.191-4.702-3.065 9.405-6.382zM3.446 14.401l3.023 1.973-3.023 2.057v-4.031zM14.195 27.753l-9.447-6.172 4.744-3.233 4.744 3.107c-0.042 0-0.042 6.298-0.042 6.298zM12.389 16.332l3.065-2.099 3.569 2.267-3.149 2.099-3.485-2.267zM17.553 27.753v-6.298l4.535-2.939 4.87 3.107-9.405 6.13zM28.302 18.557l-3.233-2.057 3.233-2.099v4.157z"></path>
</symbol>
<symbol id="icon-mail" viewBox="0 0 32 32">
<title>mail</title>
<path class="icon-path" d="M20.58 17.394c-0.050-0.1-0.149-0.149-0.299-0.050l-3.335 1.941c-0.398 0.249-0.846 0.249-1.245 0l-2.887-1.643c-0.1-0.050-0.199-0.050-0.299 0l-11.101 10.255c-0.050 0.050-0.050 0.1-0.050 0.249 0 0.050 0.050 0.1 0.1 0.199 0.249 0.050 0.398 0.1 0.498 0.1h28.325c0.050 0 0.149-0.050 0.249-0.1 0-0.149 0-0.249-0.050-0.299l-9.906-10.653z"></path>
<path class="icon-path" d="M10.076 16.448c0.050-0.050 0.050-0.1 0.050-0.199s-0.050-0.199-0.1-0.199l-8.612-4.928c-0.1-0.050-0.199-0.050-0.299 0-0.050 0-0.1 0.050-0.1 0.199v12.993c0 0.1 0.050 0.199 0.199 0.249h0.1c0.050 0 0.1 0 0.1-0.050l8.662-8.064z"></path>
<path class="icon-path" d="M31.432 10.873h-0.249l-8.214 4.878c-0.050 0-0.1 0.050-0.1 0.199-0.050 0.050 0 0.1 0.050 0.199l8.214 8.861c0.050 0.050 0.149 0.1 0.199 0.1h0.1c0.1-0.1 0.199-0.199 0.199-0.249v-13.739c0-0.1-0.050-0.199-0.199-0.249z"></path>
<path class="icon-path" d="M30.635 3.555h-28.673c-0.299 0-0.498 0.1-0.747 0.249-0.199 0.199-0.299 0.448-0.299 0.747v3.186c0 0.149 0.050 0.249 0.199 0.249l15.133 8.612c0.050 0 0.149 0 0.199-0.050l14.586-8.512c0.050-0.050 0.149-0.050 0.199-0.050s0.1 0 0.199-0.050c0.149 0 0.249-0.050 0.249-0.249v-3.086c0-0.299-0.1-0.597-0.299-0.747-0.249-0.199-0.498-0.299-0.747-0.299z"></path>
</symbol>
<symbol id="icon-rss" viewBox="0 0 32 32">
<title>rss</title>
<path class="icon-path" d="M15.205 16.333c-4.66-4.259-12.99-5.259-12.99-5.259-0.936 0-1.699 0.635-1.699 1.548v2.899c0 0.912 0.763 1.549 1.699 1.553 0 0 5.354 0.137 8.57 3.040 4.245 3.833 4.13 9.149 4.13 9.149 0 0.916 0.443 1.658 1.382 1.658h3.293c0.938 0 1.167-0.742 1.167-1.658 0 0-0.784-8.579-5.552-12.929zM4.924 22.814c-2.326 0-4.213 1.837-4.213 4.101 0 2.27 1.887 4.104 4.213 4.104 2.329 0 4.217-1.834 4.217-4.104 0-2.264-1.887-4.101-4.217-4.101zM23.546 10.576c-7.331-8.608-21.33-9.54-21.33-9.54-0.936 0-1.699 0.639-1.699 1.555v2.895c0 0.916 0.763 1.55 1.699 1.55 0 0 10.004 0.315 15.646 6.805 7.734 7.746 7.146 15.489 7.146 15.489 0 0.915 0.76 1.655 1.701 1.655h3.293c0.94 0 1.489-0.74 1.489-1.655 0 0-0.696-12.179-7.945-18.754z"></path>
</symbol>
<symbol id="icon-twitter" viewBox="0 0 32 32">
<title>twitter</title>
<path class="icon-path" d="M32.010 7.547c-1.178 0.52-2.444 0.869-3.773 1.028 1.356-0.807 2.397-2.086 2.888-3.606-1.268 0.746-2.675 1.287-4.17 1.582-1.198-1.268-2.905-2.060-4.793-2.060-3.627 0-6.568 2.918-6.568 6.519 0 0.507 0.058 1.008 0.17 1.485-5.457-0.274-10.296-2.868-13.536-6.809-0.564 0.962-0.889 2.080-0.889 3.274 0 2.263 1.16 4.256 2.922 5.425-1.076-0.033-2.089-0.328-2.974-0.816-0.001 0.027-0.001 0.054-0.001 0.083 0 3.158 2.264 5.791 5.268 6.39-0.551 0.149-1.131 0.227-1.73 0.227-0.423 0-0.835-0.039-1.236-0.116 0.835 2.59 3.261 4.474 6.135 4.525-2.248 1.748-5.080 2.791-8.156 2.791-0.531 0-1.053-0.031-1.567-0.093 2.906 1.85 6.358 2.929 10.067 2.929 12.079 0 18.684-9.93 18.684-18.541 0-0.282-0.006-0.564-0.018-0.843 1.284-0.92 2.396-2.067 3.277-3.374z"></path>
</symbol>
<symbol id="icon-weibo" viewBox="0 0 32 32">
<title>sina-weibo</title>
<path class="icon-path" d="M31.601 14.102c0 0.002 0 0.003 0 0.005-0.209 0.643-0.9 0.996-1.544 0.788-0.645-0.208-0.998-0.899-0.79-1.545h-0.001c0.64-1.981 0.234-4.241-1.259-5.898s-3.698-2.289-5.735-1.857c-0.663 0.141-1.314-0.282-1.455-0.944-0.142-0.661 0.28-1.313 0.943-1.456h0.001c2.863-0.609 5.964 0.28 8.067 2.614 2.103 2.33 2.671 5.507 1.773 8.293zM23.11 9.519v-0.001c-0.568 0.124-1.13-0.241-1.251-0.81-0.122-0.571 0.241-1.132 0.811-1.253 1.395-0.298 2.906 0.134 3.93 1.27s1.3 2.683 0.861 4.041c-0.179 0.555-0.774 0.858-1.328 0.681-0.555-0.18-0.858-0.776-0.679-1.33h-0.002c0.215-0.664 0.080-1.421-0.42-1.976s-1.239-0.765-1.922-0.621zM23.533 11.494c0.554 0.792 0.501 1.903-0.010 3.19-0.236 0.592 0.073 0.684 0.524 0.82 1.836 0.569 3.881 1.948 3.881 4.375 0 4.019-5.792 9.081-14.499 9.081-6.641 0-13.431-3.221-13.431-8.519 0-2.769 1.754-5.972 4.773-8.994 4.033-4.034 8.735-5.872 10.504-4.101 0.78 0.78 0.855 2.131 0.354 3.744-0.261 0.812 0.762 0.362 0.762 0.364 3.26-1.366 6.103-1.446 7.143 0.040zM22.42 19.806c-0.343-3.48-4.918-5.878-10.219-5.354-5.299 0.525-9.318 3.772-8.974 7.253s4.919 5.878 10.219 5.355c5.301-0.524 9.317-3.772 8.974-7.255zM10.019 25.565c-2.548-0.823-3.626-3.34-2.511-5.608 1.096-2.224 3.945-3.481 6.467-2.825 2.61 0.675 3.942 3.139 2.876 5.531-1.082 2.448-4.193 3.753-6.832 2.902zM11.458 20.799c-0.821-0.344-1.881 0.009-2.388 0.804-0.513 0.798-0.272 1.749 0.543 2.12 0.827 0.378 1.924 0.019 2.437-0.799 0.503-0.827 0.238-1.771-0.592-2.125zM13.481 19.96c-0.315-0.125-0.708 0.026-0.893 0.336-0.179 0.311-0.080 0.666 0.235 0.796 0.321 0.132 0.731-0.020 0.916-0.337 0.177-0.319 0.062-0.678-0.258-0.795z"></path>
</symbol>
<symbol id="icon-zhihu" viewBox="0 0 32 32">
<title>zhihu</title>
<path class="icon-path" d="M26.182 27.151l-4.849 4.849v-4.849h-2.909v-22.303l12.596 0.164 0.010-0.164v22.303h-4.849zM28.121 7.758h-6.788v17.422l0.97 0.033v1.939l3.736-1.99 2.082 0.050v-17.455zM11.636 17.455c-1.010 0.010-1.043-0.212-1.089 0.878-0.029 0.693-0.243 1.378-0.374 2.066l-0.859 2.763c-0.696 1.816-1.484 3.581-2.768 5.092-1.274 1.496-3.009 1.705-4.803 1.768-0.279 0.010-0.666 0.054-0.766-0.312-0.093-0.344 0.245-0.524 0.465-0.701 1.89-1.528 3.22-2.641 4.376-4.765 0.937-1.72 1.633-2.913 1.939-4.849 0.131-0.829-0.18-1.962-0.97-1.939-1.466 0.042-4.351-0.015-5.818 0-0.047-0.005 0.13-0.469 0.282-0.954 0.314-1.057 1.049-1.92 1.873-1.905 1.279 0.023 1.416-0.091 2.694-0.050 0.81 0.026 1.948-0.128 1.939-0.97-0.019-1.901-0.053-3.919 0-5.818 0.016-0.545 0.382-0.769-0.134-0.812-1.677-0.137-1.841-0.060-2.635 1.474-0.648 1.25-1.984 1.959-3.337 2.294-0.73 0.181-0.655 0.156-0.562-0.064 1.071-2.514 2.233-5.721 3.248-8.247 0.417-1.038 2.182-1.795 3.203-2.378 0 0 0.239-0.173 0.005 0.553-0.251 0.782-0.585 2.202-0.863 2.973-0.292 0.806-0.146 1.223 0.677 1.216 2.446-0.020 5.026 0 7.473 0 0.577 0 1.068-0.097 1.429 0.514 1.176 1.984 0.91 1.649-0.235 1.667-0.978 0.016-2.443-0.127-3.42-0.16-0.74-0.025-1.785 0.378-1.819 1.161-0.091 2.122-0.149 3.687-0.12 5.627 0.011 0.689 1.451 0.971 1.939 0.97 1.279-0.002 1.444 0.028 2.723 0.050 1.044 0.017 1.761 0.864 2.126 1.889 0.026 0.324 0.261 0.881 0 0.97-1.335-0.014-4.501-0.013-5.818 0zM15.515 25.212c0.381 0.565 0.431 1.574 0 2.909-0.085 0.266-0.604 0.133-1.166-0.507-1.357-1.548-2.601-3.188-3.913-4.773-0.367-0.443-0.587-0.694-0.754-0.746l1.954-1.732c0.894 1.056 2.987 3.791 3.879 4.848z"></path>
</symbol>
<symbol id="icon-bilibili" viewBox="0 0 32 32">
<title>bilibili</title>
<path class="icon-path" d="M31.364 28.407c-0.273 0.001-0.55 0.025-0.821-0.004-0.992-0.108-1.716 1.020-2.060 2.208-0.31 1.070-1.486 1.617-2.545 1.507-1.223-0.126-2.032-0.825-2.344-1.93-0.188-0.668-0.754-1.186-1.378-1.182-4.303 0.025-8.13 0.013-12.434 0-0.495-0.001-1.024 0.473-1.169 1.057-0.31 1.252-1.374 2.046-2.552 2.066-1.22 0.021-2.279-0.753-2.635-2.053-0.149-0.544-0.401-1.708-0.921-1.679-0.669 0.037-1.343 0.019-2.014 0.007-0.734-0.013-1.058-0.308-1.058-1.004 0.005-7.080 0.016-14.159 0.034-21.239 0.002-0.732 0.306-0.978 1.149-0.979 3.457-0.004 6.915-0.002 10.373-0.002 0.241 0 0.483 0 0.723 0 0.022-0.059 0.045-0.119 0.066-0.179-0.803-0.422-1.606-0.843-2.408-1.266-1.331-0.703-2.665-1.403-3.994-2.108-0.539-0.286-0.763-0.722-0.458-1.263 0.308-0.547 0.816-0.58 1.348-0.3 3.122 1.646 6.245 3.291 9.355 4.955 0.797 0.427 2.231 0.171 2.744-0.55 1.591-2.242 3.18-4.484 4.77-6.728 0.056-0.079 0.11-0.16 0.168-0.238 0.454-0.609 0.969-0.774 1.437-0.414 0.542 0.415 0.449 0.909 0.1 1.403-0.646 0.915-1.291 1.829-1.935 2.744-0.893 1.268-1.785 2.538-2.777 3.947 0.406 0 0.666 0 0.926 0 3.434 0 6.867-0.001 10.299 0.001 1.049 0.001 1.21 0.16 1.211 1.179 0.010 6.959 0.020 13.917 0.026 20.876 0.001 0.995-0.182 1.163-1.229 1.17zM26.204 30.489c0.549-0.036 0.81-1.491 0.977-2.041-0.714 0-1.346 0-2.076 0 0.204 0.605 0.487 2.083 1.099 2.041zM5.968 30.49c0.608 0.037 0.895-1.433 1.076-2.037-0.719 0-1.348 0-2.045 0 0.139 0.569 0.425 2.004 0.969 2.037zM30.506 7.247c-9.935 0-19.135 0-29.012 0 0 6.696 0 13.030 0 19.687 9.925 0 19.086 0 29.012 0 0-6.706 0-13.022 0-19.687zM3.566 11.269c0.002-0.959 0.465-1.897 1.431-1.898 7.37-0.001 14.154-0.054 21.524-0.052 0.98 0 1.91 1.001 1.913 1.95 0.013 4.578-0.007 8.101 0 12.678 0.002 0.978-0.885 1.949-1.913 1.95-3.674 0.002-6.848 0-10.521 0s-6.847 0.002-10.521 0c-1.069-0.001-1.914-0.896-1.913-1.95 0.005-4.555-0.008-8.123 0-12.678zM26.669 23.806c0-4.328-0.148-8.3-0.148-12.536-7.112 0-13.993 0-21.042 0 0 4.303-0.025 8.272-0.025 12.536 7.098 0 14.134 0 21.215 0zM11.449 13.793c0.060-0.027 0.135-0.022 0.386-0.058 0.146 0.143 0.515 0.34 0.554 0.586 0.045 0.288-0.11 0.79-0.333 0.903-1.362 0.691-2.76 1.314-4.162 1.924-0.427 0.186-0.896 0.046-1.005-0.41-0.071-0.298 0.057-0.865 0.271-0.973 1.403-0.71 2.853-1.328 4.289-1.973zM11.877 18.412c0.265-0.009 0.608 0.357 0.8 0.637 0.153 0.223 0.089 0.579 0.197 0.848 0.204 0.513 0.588 1.001 1.156 0.881 0.42-0.088 0.803-0.508 1.118-0.856 0.155-0.172 0.129-0.512 0.167-0.778 0.071-0.501 0.367-0.81 0.862-0.798 0.453 0.011 0.747 0.285 0.805 0.775 0.037 0.31 0.046 0.694 0.231 0.9 0.296 0.329 0.723 0.727 1.105 0.74 0.346 0.011 0.767-0.407 1.039-0.73 0.181-0.215 0.171-0.594 0.228-0.903 0.092-0.494 0.378-0.795 0.89-0.755 0.509 0.039 0.776 0.367 0.756 0.878-0.049 1.296-0.564 2.35-1.778 2.928-1.131 0.54-2.188 0.308-3.115-0.522-0.050-0.045-0.11-0.077-0.172-0.119-0.282 0.196-0.543 0.423-0.842 0.579-0.979 0.511-1.959 0.468-2.863-0.16-0.997-0.694-1.441-1.706-1.352-2.882 0.019-0.255 0.491-0.654 0.767-0.663zM19.105 13.733c0.24-0.421 0.667-0.536 1.066-0.309 1.584 0.903 3.151 1.836 4.707 2.783 0.186 0.113 0.273 0.384 0.339 0.482 0.018 0.77-0.62 1.189-1.206 0.858-1.568-0.884-3.109-1.814-4.649-2.748-0.406-0.247-0.492-0.656-0.257-1.066z"></path>
</symbol>
<symbol id="icon-douban" viewBox="0 0 32 32">
<title>douban</title>
<path class="icon-path" d="M9.955 20.173c1.256 1.714 2.389 3.87 3.382 6.288h6.097c1.186-1.866 2.102-4.024 2.997-6.288l3.441 1.156c-0.9 1.909-1.994 3.681-3.023 5.132h8.537l0.043 3.038h-30.857v-2.893l9.351-0.146c-0.807-1.562-1.826-3.329-3.132-5.132l3.165-1.156zM1.536 2.5h28.929v2.893h-28.929v-2.893zM4.556 8.172l23.016 0.114v11.571h-23.143l0.127-11.685zM24.679 16.964l0.122-5.942-17.479 0.156v5.786h17.357z"></path>
</symbol>
<symbol id="icon-netease-music" viewBox="0 0 32 32">
<title>netease-music</title>
<path class="icon-path" d="M21.439-0.014c0.33 0.053 0.664 0.090 0.992 0.161 1.148 0.248 2.177 0.745 3.085 1.475 0.596 0.478 0.839 1.102 0.666 1.841-0.155 0.664-0.589 1.112-1.259 1.304-0.634 0.181-1.207 0.043-1.727-0.364-0.66-0.518-1.392-0.875-2.269-0.799-0.744 0.065-1.454 0.83-1.39 1.513 0.028 0.306 0.14 0.604 0.219 0.905 0.14 0.531 0.285 1.061 0.427 1.592 0.024 0.091 0.048 0.164 0.179 0.171 1.998 0.106 3.799 0.743 5.403 1.922 1.577 1.16 2.869 2.552 3.735 4.3 0.635 1.284 0.991 2.639 1.085 4.061 0.125 1.891-0.102 3.74-0.854 5.486-1.749 4.058-4.824 6.676-9.147 7.879-1.645 0.458-3.331 0.637-5.037 0.542-3.547-0.198-6.62-1.509-9.208-3.88-2.554-2.338-4.147-5.213-4.7-8.588-0.754-4.591 0.402-8.707 3.46-12.277 1.679-1.961 3.775-3.374 6.219-4.286 0.842-0.315 1.764-0.022 2.226 0.697 0.472 0.735 0.361 1.681-0.293 2.265-0.184 0.166-0.418 0.296-0.651 0.39-3.726 1.488-6.187 4.109-7.165 7.932-0.949 3.708-0.11 7.103 2.312 10.094 1.518 1.875 3.48 3.134 5.853 3.752 1.534 0.4 3.084 0.425 4.647 0.189 1.612-0.244 3.118-0.762 4.469-1.667 1.858-1.245 3.182-2.904 3.844-5.016 0.571-1.823 0.591-3.664-0.115-5.473-0.568-1.456-1.574-2.576-2.834-3.5-0.673-0.494-1.396-0.879-2.22-1.068-0.038-0.008-0.076-0.013-0.144-0.024 0.113 0.422 0.217 0.823 0.326 1.223 0.262 0.964 0.529 1.927 0.786 2.892 0.558 2.099 0.018 3.937-1.459 5.503-1.367 1.449-3.106 2.080-5.1 1.891-2.221-0.211-3.807-1.39-4.841-3.3-0.542-1-0.776-2.077-0.819-3.205-0.069-1.796 0.36-3.453 1.411-4.936 1.129-1.592 2.693-2.613 4.541-3.247 0.145-0.050 0.293-0.095 0.463-0.151-0.1-0.37-0.203-0.73-0.293-1.094-0.123-0.501-0.281-0.999-0.344-1.507-0.183-1.504 0.289-2.811 1.351-3.907 0.87-0.896 1.924-1.464 3.187-1.635 0.139-0.019 0.278-0.040 0.417-0.059 0.189 0 0.378 0 0.568 0zM17.495 11.658c-1.095 0.341-2.040 0.86-2.748 1.724-0.948 1.158-1.137 2.488-0.835 3.9 0.157 0.734 0.524 1.362 1.168 1.8 0.805 0.548 1.901 0.524 2.743-0.045 0.86-0.584 1.243-1.524 0.992-2.488-0.275-1.056-0.568-2.108-0.853-3.162-0.153-0.567-0.307-1.135-0.467-1.73z"></path>
</symbol>
<symbol id="icon-v2ex" viewBox="0 0 32 32">
<title>v2ex</title>
<path class="icon-path" d="M19.549 2.508h-17.378c-0.639 0-1.158 0.508-1.158 1.135v7.857h16.297c0.339 0 0.663 0.136 0.895 0.378l3.782 3.919c0.085 0.088 0.085 0.224 0.001 0.312l-3.782 3.957c-0.233 0.244-0.489 0.444-0.83 0.444h-16.363v7.866c0 0.627 0.519 1.136 1.158 1.136h17.374c0.383 0 0.75-0.149 1.021-0.415l11.738-11.518c0.915-0.897 0.912-2.352-0.007-3.246l-11.732-11.415c-0.27-0.263-0.635-0.41-1.016-0.41z"></path>
</symbol>
<symbol id="icon-crimx" viewBox="0 0 32 32">
<path d="M5.714 16.766c-.554.328-1.256.422-1.85.422-1.645 0-2.9-1.288-2.9-2.81 0-1.216.896-2.246 2.316-2.246 1.007 0 1.732.562 1.88.904.023.133.048.5.048.648l.18.054c.008-.74.054-1.552.17-2.41l-.18.04c-.022.093-.116.592-.162.693-.22-.062-.943-.2-1.63-.2-.788 0-1.514.1-2.325.646-.686.46-1.23 1.257-1.23 2.333 0 .998.6 1.888 1.614 2.386.632.313 1.482.346 1.77.346 1.227 0 2.015-.32 2.193-.47l.11-.335h-.003zm5.237-2.224c.717-.335 1.31-.983 1.31-1.475 0-.43-.306-.726-.798-.89-.63-.21-1.736-.218-2.62-.218l-2.005.007.027.164c.205.018.836.064.994.095.037.15.046 1.646.046 1.928v.476c0 .818-.01 2.35-.046 2.575-.26.055-.854.102-.984.11l-.037.163c.214-.016 1.188-.03 1.57-.03.427 0 1.364.015 1.597.03l-.037-.162c-.204-.016-.817-.07-.976-.11-.026-.356-.045-1.56-.045-2.065v-.202c.157 0 .54-.023.892-.047.148.165 2.62 2.56 3.27 2.81l.407-.055c-.965-.857-2.46-2.9-2.563-3.096v-.008zm-.872 0c-.4.125-.8.148-1.133.148v-.242c0-.554.02-1.95.047-2.27 1.607 0 2.146.608 2.146 1.107 0 .775-.66 1.133-1.06 1.257zm6.348-2.317c.28-.03.663-.093.82-.11l.038-.162c-.133.016-.803.03-1.2.03-.617 0-1.335-.015-1.483-.03l.04.163c.15.017.664.08.82.11.03.265.04 1.724.04 1.98v.46c0 .766-.01 2.21-.04 2.537-.164.03-.693.102-.827.107l-.03.166c.233-.016.95-.03 1.217-.03.483 0 1.295.015 1.466.03l-.04-.166c-.155-.014-.623-.06-.817-.107-.032-.156-.04-1.46-.04-2.474v-.484c0-.96.008-1.865.04-2.02h-.004zm9.2 5.086c-.13-.02-.416-.06-.596-.106-.122-.492-.805-4.104-.94-4.98.15-.037.502-.092.603-.108l.02-.163c-.165.016-.77.03-.998.03-.252 0-.74-.015-.97-.03l.034.163c.13.024.352.055.487.11-.014.18-1.258 3.41-1.467 3.853-.223-.594-1.1-3.145-1.308-3.855.136-.03.337-.085.54-.11l.026-.162c-.2.016-.77.03-1.078.03-.38 0-.942-.015-1.035-.03l.043.163c.08.017.517.08.71.11-.107.64-.89 4.493-1.05 4.985-.156.048-.387.08-.51.1l-.05.167c.236-.016.604-.03.798-.03.136 0 .97.015 1.07.03l-.028-.166c-.108-.013-.51-.075-.64-.106-.03-1.008.394-3.176.58-4.37h.032c.085.297 1.438 4.19 1.638 4.675.217-.446 1.632-4.19 1.826-4.667h.028c.086.577.712 4.088.725 4.377-.143.016-.69.086-.79.094l-.015.164c.208-.016 1-.03 1.33-.03.338 0 .77.015 1.014.03l-.035-.162.007-.005zm3.885-3.056c.243-.305 1.623-1.98 1.766-2.028.124-.03.335-.07.483-.11l.014-.163c-.195.016-.484.03-.812.03-.422 0-.835-.015-1.014-.03l.03.163c.1.017.42.063.554.11-.196.397-.968 1.49-1.194 1.786-.188-.21-1.115-1.583-1.217-1.786.157-.04.367-.078.664-.11l.046-.163c-.32.016-2.34.016-2.434 0l.023.163c.162.032.366.063.506.11.358.374 1.294 1.724 1.85 2.426-.258.328-1.726 2.356-2.044 2.552-.15.063-.336.086-.492.107l-.055.167c.194-.016.414-.03.85-.03.445 0 1.038.03 1.163.03l-.024-.166c-.14-.013-.477-.067-.647-.106.297-.617 1.225-2.068 1.435-2.303.343.392 1.6 2.085 2.684 2.903l.327-.078c-.562-.732-2.013-2.854-2.465-3.47h.003zM2.44 19.11c-.187-.116-.353-.202-.353-.362 0-.11.09-.244.3-.244.17 0 .297.13.324.22.004.044.01.103.01.187l.056.026c0-.203.024-.43.06-.672l-.058.008c-.015.064-.026.14-.044.197-.06-.015-.186-.046-.33-.046-.363 0-.505.24-.505.432 0 .277.19.414.43.57.16.104.314.2.314.4 0 .18-.154.307-.35.307-.168 0-.312-.11-.38-.266-.006-.045-.02-.184-.016-.217l-.058-.014c.008.06-.007.322-.007.387 0 .094-.035.367-.04.4l.057-.013c.018-.092.042-.21.054-.256.07.037.22.06.338.06.333 0 .603-.192.603-.532 0-.31-.206-.445-.41-.572h.003zm3.886-.643c-.04.008-.463.025-.817.025-.33 0-.752-.018-.79-.025-.01-.05-.014-.127-.017-.158l-.056-.01c0 .192-.027.5-.037.614l.056-.014c.015-.08.03-.176.05-.23.065-.04.24-.102.633-.102.008.057.012.42.012.6v.11c0 .214-.005.636-.012.825-.06.008-.258.03-.314.035l-.013.05c.07-.003.363-.007.475-.007.134 0 .42.005.48.01l-.01-.05c-.047-.006-.27-.027-.316-.033-.01-.197-.014-.61-.014-.826v-.108c0-.176.005-.533.013-.6.236 0 .576.055.64.104 0 .053 0 .154-.007.252l.056.016c.007-.074.062-.576.077-.633l-.062.01c-.01.05-.024.124-.034.153l.004-.006zm3.317.338c0-.135-.08-.227-.21-.28-.166-.065-.458-.067-.69-.067h-.53l.008.054c.054.004.22.018.262.027.01.046.013.517.013.604v.15c0 .256-.003.736-.013.807-.067.017-.225.032-.26.034l-.01.05c.058-.003.315-.01.415-.01.112 0 .36.007.422.01l-.01-.05c-.054-.006-.216-.02-.257-.033-.007-.112-.012-.49-.012-.65v-.062c.04 0 .143-.008.234-.016.04.05.69.803.862.88l.108-.017c-.254-.27-.648-.91-.675-.973.188-.105.345-.31.345-.46v.003zm-.576.463c-.104.04-.21.047-.298.047v-.076c0-.175.006-.612.013-.714.423 0 .564.19.564.348 0 .244-.173.355-.278.395h-.002zm4.164.836c-.112-.217-.264-.627-.333-.816-.092-.258-.228-.64-.257-.75.057-.014.123-.023.187-.03l.008-.052c-.07.004-.316.008-.42.008-.04 0-.243-.004-.316-.01l.003.053c.06.006.14.016.194.03-.035.093-.52 1.41-.61 1.565-.065.014-.14.025-.21.033l-.007.05c.056-.003.22-.01.284-.01.072 0 .294.007.37.01l-.01-.05c-.068-.008-.15-.018-.21-.033.024-.19.157-.652.17-.688.092-.016.48-.03.566-.03.04.07.214.59.258.716-.075.018-.16.025-.246.033l-.012.053c.066-.006.343-.01.413-.01.13 0 .376.004.405.01l-.007-.053c-.074-.01-.145-.02-.215-.033l-.005.004zm-1.126-.8c.025-.083.185-.507.26-.724h.005c.042.135.196.57.25.73l-.514-.01v.003zm4.253-.85l.008.052c.03.006.14.02.19.033-.007.1-.384.67-.423.74-.076-.128-.326-.485-.47-.74.056-.013.165-.024.21-.034l.012-.05c-.034.003-.198.01-.338.01-.222 0-.384-.007-.426-.01l.01.052c.05.01.14.02.17.033.113.106.58.796.6.86.007.064.007.13.007.162v.078c0 .158-.003.428-.014.463-.055.016-.168.03-.215.035l-.012.05c.067-.003.246-.01.335-.01.166 0 .387.007.438.01l-.005-.05c-.046-.006-.207-.025-.236-.033-.01-.06-.013-.39-.013-.455v-.094c0-.06.003-.13.01-.174.034-.107.54-.822.593-.84.052-.014.13-.025.166-.033l.007-.052c-.057.004-.184.01-.297.01-.135 0-.27-.006-.31-.01l.005-.003zm3.215.802v-.008c.08-.035.226-.113.315-.254.063-.1.064-.16.064-.23 0-.115-.074-.318-.552-.318-.154 0-.62.018-.702.02l.013.05c.07.007.168.01.25.024.01.102.018.484.018.66v.154c0 .215 0 .58-.017.75-.05.014-.196.027-.253.033l-.01.053c.07-.006.32-.01.374-.01.053 0 .143.004.23.01.087.004.17.01.205.01.34 0 .57-.19.57-.47 0-.26-.26-.433-.502-.472l-.003-.002zm-.327-.137c0-.224.002-.57.007-.595.022-.01.06-.014.1-.014.2 0 .33.142.33.355 0 .123-.053.242-.143.307-.094.068-.22.084-.294.084v-.137zm.225 1c-.048 0-.14-.013-.195-.052-.012-.03-.03-.396-.03-.607v-.132c.06-.008.192.008.29.06.167.087.27.276.27.433 0 .17-.1.298-.33.298h-.005zm3.534-1.665l.017.05c.063.005.21.024.268.034.01.08.012.528.012.606v.227c0 .293-.03.508-.164.633-.083.078-.19.117-.352.117-.264 0-.483-.178-.483-.695v-.326c0-.21.006-.52.013-.563.08-.017.188-.028.255-.036l.013-.05c-.06.003-.248.007-.36.007-.19 0-.345-.003-.415-.01l.01.052c.065.01.14.02.192.035.007.066.012.332.012.553v.383c0 .426.232.742.74.742.24 0 .398-.074.51-.172.188-.168.24-.402.24-.68 0-.088-.004-.205-.004-.3v-.118c0-.066.004-.373.012-.408.064-.016.13-.025.172-.035l.015-.05c-.04.003-.17.007-.298.007-.152 0-.336-.007-.397-.01l-.008.005zm3.42.965l.016.05c.047.01.198.022.247.028.008.043.01.12.01.195v.13c0 .122-.002.206-.007.24-.103.056-.248.065-.31.065-.53 0-.87-.512-.87-.91 0-.393.283-.707.71-.707.4 0 .573.163.637.237.01.057.02.143.026.225l.058.03c-.007-.228.02-.66.035-.755l-.056.012c-.008.05-.036.187-.045.226-.08-.03-.337-.06-.547-.06-.25 0-.497.044-.72.198-.215.146-.387.393-.387.738 0 .307.18.584.487.738.206.104.49.117.65.117.166 0 .485-.04.626-.08-.003-.068-.003-.2-.003-.29v-.077c0-.068.002-.23.01-.27.055-.012.19-.025.212-.027l.012-.05c-.03.003-.267.005-.385.005-.085.002-.273-.002-.4-.006l-.004-.002zm3.018-.31c-.187-.116-.353-.204-.353-.362 0-.11.09-.244.3-.244.17 0 .298.13.325.22.005.044.01.103.01.187l.057.024c0-.2.023-.428.058-.67l-.057.008c-.013.064-.024.14-.042.197-.06-.015-.186-.046-.33-.046-.362 0-.504.242-.504.432 0 .277.19.414.43.572.16.102.314.2.314.398 0 .18-.153.307-.347.307-.168 0-.312-.107-.38-.266-.006-.045-.018-.184-.016-.215l-.057-.016c.007.06-.008.322-.008.39 0 .095-.034.364-.04.4l.057-.015c.018-.09.042-.208.054-.255.07.037.222.063.34.063.332 0 .603-.193.603-.535 0-.31-.206-.445-.408-.572h-.005zM3.033 10.89V9.51l.797 1.383h.733L3.148 8.44l12.49-7.218v9.67h.636V1.168l12.58 7.27-1.414 2.453h.732l.798-1.382v1.383h.636V8.14L16.002.276 2.397 8.14v2.75M28.97 21.11v2.384L16.87 30.488l5.41-9.38h-.732l-5.27 9.14v-9.14h-.637v8.983l-5.182-8.98h-.732l5.41 9.378-12.103-6.992V21.11h-.636v2.75L16 31.723l13.605-7.86v-2.753"/>
</symbol>
<symbol id="icon-circle">
<circle cx="50%" cy="50%" r="50%"/>
</symbol>
<symbol id="icon-github-circle" viewBox="0 0 32 32">
<title>github</title>
<use xlink:href="#icon-circle" fill="#5f5f5f"></use>
<use xlink:href="#icon-github" height="19" y="7" fill="#fff"></use>
</symbol>
<symbol id="icon-codepen-circle" viewBox="0 0 32 32">
<title>codepen</title>
<use xlink:href="#icon-circle" fill="#000"></use>
<use xlink:href="#icon-codepen" width="20" x="6" fill="#fff"></use>
</symbol>
<symbol id="icon-mail-circle" viewBox="0 0 32 32">
<title>mail</title>
<use xlink:href="#icon-circle" fill="#dd4b39"></use>
<use xlink:href="#icon-mail" width="20" x="6" fill="#fff"></use>
</symbol>
<symbol id="icon-rss-circle" viewBox="0 0 32 32">
<title>rss</title>
<use xlink:href="#icon-circle" fill="#fc9a2a"></use>
<use xlink:href="#icon-rss" width="16" x="9" fill="#fff"></use>
</symbol>
<symbol id="icon-twitter-circle" viewBox="0 0 32 32">
<title>twitter</title>
<use xlink:href="#icon-circle" fill="#1da1f2"></use>
<use xlink:href="#icon-twitter" width="20" x="7" fill="#fff"></use>
</symbol>
<symbol id="icon-weibo-circle" viewBox="0 0 32 32">
<title>sina-weibo</title>
<use xlink:href="#icon-circle" fill="#e6162d"></use>
<use xlink:href="#icon-weibo" width="20" x="6" fill="#fff"></use>
</symbol>
<symbol id="icon-zhihu-circle" viewBox="0 0 32 32">
<title>zhihu</title>
<use xlink:href="#icon-circle" fill="#086acd"></use>
<use xlink:href="#icon-zhihu" width="20" x="6" fill="#fff"></use>
</symbol>
<symbol id="icon-bilibili-circle" viewBox="0 0 32 32">
<title>bilibili</title>
<use xlink:href="#icon-circle" fill="#f489ad"></use>
<use xlink:href="#icon-bilibili" width="20" x="6" fill="#fff"></use>
</symbol>
<symbol id="icon-douban-circle" viewBox="0 0 32 32">
<title>douban</title>
<use xlink:href="#icon-circle" fill="#259235"></use>
<use xlink:href="#icon-douban" width="20" x="6" fill="#fff"></use>
</symbol>
<symbol id="icon-netease-music-circle" viewBox="0 0 32 32">
<title>netease-music</title>
<use xlink:href="#icon-circle" fill="#ea0606"></use>
<use xlink:href="#icon-netease-music" width="22" x="4.8" y="-.5" fill="#fff"></use>
</symbol>
<symbol id="icon-v2ex-circle" viewBox="0 0 32 32">
<title>v2ex</title>
<use xlink:href="#icon-circle" fill="#1e1e1f"></use>
<use xlink:href="#icon-v2ex" width="20" x="7" fill="#fff"></use>
</symbol>
</defs>
</svg>
