<svg style="position: absolute; width: 0; height: 0; overflow: hidden;" version="1.1" xmlns="http://www.w3.org/2000/svg" xmlns:xlink="http://www.w3.org/1999/xlink">
<defs>
<symbol id="icon-crimx" viewBox="0 0 400 400">
<path class="icon-path" d="M86.567 208.442c-6.107 3.612-13.848 4.645-20.385 4.645-18.15 0-31.998-14.19-31.998-30.965 0-13.418 9.892-24.772 25.547-24.772 11.1 0 19.1 6.193 20.73 9.978.26 1.462.52 5.505.52 7.14l1.98.6c.09-8.17.6-17.116 1.89-26.577l-1.98.43c-.26 1.04-1.29 6.54-1.8 7.66-2.41-.69-10.4-2.23-17.98-2.23-8.68 0-16.68 1.12-25.63 7.14-7.57 5.08-13.59 13.85-13.59 25.72 0 11.01 6.63 20.82 17.81 26.32 6.97 3.44 16.35 3.79 19.53 3.79 13.51 0 22.19-3.52 24.17-5.16l1.21-3.7zm57.743-24.512c7.886-3.7 14.44-10.84 14.44-16.258 0-4.73-3.38-8-8.808-9.805-6.963-2.323-19.15-2.41-28.878-2.41l-22.12.087.306 1.807c2.253.18 9.217.69 10.958 1.04.41 1.64.512 18.15.512 21.25v5.25c0 9.03-.103 25.89-.512 28.39-2.868.61-9.422 1.12-10.856 1.21l-.41 1.81c2.356-.17 13.108-.34 17.308-.34 4.71 0 15.054.17 17.615.35l-.41-1.8c-2.254-.17-9.013-.77-10.753-1.2-.307-3.95-.51-17.2-.51-22.79v-2.23c1.74 0 5.94-.26 9.83-.52 1.638 1.81 28.878 28.21 36.047 30.97l4.5-.6c-10.65-9.46-27.14-31.992-28.27-34.142zm-9.625 0c-4.404 1.375-8.81 1.633-12.494 1.633v-2.667c0-6.106.21-21.503.52-25.03 17.72 0 23.66 6.71 23.66 12.215 0 8.52-7.27 12.48-11.67 13.85zm69.993-25.548c3.096-.344 7.31-1.032 9.03-1.204l.43-1.806c-1.46.172-8.858.344-13.244.344-6.795 0-14.71-.172-16.343-.344l.43 1.806c1.64.172 7.32.86 9.04 1.204.35 2.925.43 19.01.43 21.848v5.075c0 8.43-.08 24.34-.43 27.955-1.81.344-7.65 1.118-9.12 1.204l-.34 1.806c2.58-.172 10.5-.344 13.42-.344 5.33 0 14.28.172 16.17.344l-.43-1.806c-1.72-.172-6.88-.688-9.03-1.204-.34-1.72-.43-16.084-.43-27.267v-5.333c0-10.58.09-20.557.43-22.278zm101.448 56.082c-1.428-.26-4.597-.688-6.578-1.204-1.35-5.42-8.877-45.244-10.383-54.878 1.665-.43 5.55-1.03 6.657-1.204l.237-1.806c-1.83.172-8.48.344-11.02.344-2.78 0-8.17-.172-10.7-.344l.4 1.806c1.42.26 3.88.602 5.38 1.204-.16 1.98-13.87 37.59-16.17 42.492-2.46-6.537-12.13-34.664-14.43-42.492 1.5-.343 3.72-.945 5.94-1.204l.31-1.806c-2.22.172-8.48.344-11.89.344-4.2 0-10.38-.172-11.41-.344l.47 1.806c.87.173 5.7.86 7.84 1.204-1.19 7.054-9.83 49.545-11.57 54.964-1.75.516-4.28.86-5.63 1.118l-.56 1.806c2.61-.172 6.66-.344 8.8-.344 1.5 0 10.7.172 11.81.344l-.32-1.806c-1.19-.172-5.63-.86-7.06-1.204-.32-11.097 4.35-35.008 6.41-48.168h.32c.95 3.268 15.85 46.19 18.07 51.522 2.38-4.903 17.99-46.19 20.13-51.437h.31c.95 6.365 7.85 45.07 8 48.254-1.587.18-7.61.95-8.72 1.04l-.16 1.81c2.3-.17 11.02-.34 14.664-.34 3.73 0 8.48.17 11.18.35l-.39-1.8zm42.83-33.718c2.667-3.354 17.89-21.847 19.44-22.363 1.376-.344 3.7-.774 5.333-1.205l.17-1.806c-2.15.172-5.34.344-8.95.344-4.65 0-9.21-.172-11.18-.344l.34 1.806c1.11.173 4.64.69 6.1 1.205-2.15 4.386-10.67 16.428-13.16 19.697-2.07-2.322-12.3-17.46-13.42-19.697 1.72-.43 4.04-.86 7.31-1.205l.51-1.806c-3.53.172-25.81.172-26.84 0l.26 1.806c1.8.345 4.04.69 5.59 1.205 3.95 4.128 14.27 19.01 20.38 26.75-2.83 3.613-19.01 25.977-22.53 28.127-1.64.688-3.7.945-5.42 1.204l-.6 1.806c2.14-.172 4.56-.344 9.37-.344 4.9 0 11.44.344 12.81.344l-.26-1.806c-1.55-.172-5.25-.774-7.14-1.204 3.27-6.796 13.5-22.794 15.82-25.375 3.78 4.3 17.63 22.966 29.59 31.998l3.61-.86c-6.2-8.086-22.19-31.482-27.18-38.277zM50.45 234.304c-2.053-1.296-3.89-2.24-3.89-3.995 0-1.22.974-2.7 3.294-2.7 1.89 0 3.293 1.45 3.59 2.43.055.48.108 1.13.108 2.05l.62.27c0-2.22.27-4.73.648-7.4l-.62.08c-.162.73-.298 1.54-.486 2.19-.648-.16-2.05-.49-3.645-.49-4 0-5.56 2.64-5.56 4.75 0 3.05 2.1 4.56 4.75 6.29 1.75 1.13 3.45 2.21 3.45 4.4 0 1.99-1.7 3.4-3.84 3.4-1.86 0-3.46-1.22-4.19-2.94-.08-.49-.22-2.03-.19-2.38l-.63-.16c.08.64-.08 3.56-.08 4.26 0 1.05-.38 4.05-.44 4.42l.62-.16c.19-1 .46-2.3.59-2.81.76.4 2.43.67 3.73.67 3.67 0 6.64-2.13 6.64-5.89 0-3.4-2.27-4.92-4.51-6.32zm42.845-7.1c-.433.08-5.102.27-9.016.27-3.65 0-8.29-.188-8.72-.27-.08-.566-.14-1.403-.17-1.754l-.62-.108c.02 2.133-.3 5.507-.41 6.802l.62-.16c.16-.893.32-1.945.54-2.54.73-.458 2.67-1.133 6.99-1.133.08.63.13 4.62.13 6.62v1.22c0 2.35-.06 6.99-.14 9.1-.65.08-2.84.33-3.46.38l-.14.57c.78-.05 4.02-.1 5.24-.1 1.48 0 4.64.06 5.29.11l-.11-.56c-.51-.05-2.97-.29-3.48-.37-.08-2.16-.14-6.72-.14-9.1v-1.21c0-1.94.06-5.88.14-6.61 2.62 0 6.37.6 7.05 1.14.03.6 0 1.7-.06 2.78l.62.16c.08-.81.7-6.34.86-6.96l-.68.11c-.11.52-.27 1.35-.38 1.68zm36.56 3.726c0-1.485-.89-2.51-2.32-3.077-1.838-.73-5.05-.756-7.613-.756l-5.83.026.08.566c.594.05 2.43.21 2.89.32.107.51.134 5.69.134 6.67v1.64c0 2.83-.026 8.12-.135 8.9-.75.19-2.48.35-2.86.38l-.1.56c.62-.06 3.46-.11 4.56-.11 1.24 0 3.97.05 4.65.11l-.11-.57c-.59-.06-2.37-.24-2.83-.38-.08-1.24-.13-5.4-.13-7.15v-.7c.46 0 1.57-.08 2.59-.17.44.56 7.62 8.85 9.51 9.71l1.19-.19c-2.8-2.97-7.15-10.04-7.44-10.72 2.08-1.16 3.8-3.4 3.8-5.1zm-6.344 5.1c-1.16.433-2.32.514-3.29.514v-.837c0-1.916.06-6.748.14-7.854 4.67 0 6.24 2.105 6.24 3.833 0 2.67-1.91 3.913-3.07 4.345zm45.9 9.205c-1.24-2.375-2.91-6.91-3.67-8.988-1.02-2.834-2.51-7.07-2.83-8.26.62-.162 1.35-.27 2.05-.352l.08-.566c-.78.05-3.48.1-4.61.1-.45 0-2.69-.06-3.5-.11l.03.56c.65.08 1.54.19 2.14.35-.38 1.02-5.75 15.54-6.72 17.24-.73.16-1.54.3-2.32.38l-.08.57c.62-.06 2.43-.11 3.13-.11.79 0 3.24.05 4.08.11l-.11-.57c-.75-.08-1.64-.19-2.32-.38.27-2.08 1.73-7.18 1.89-7.56 1-.17 5.29-.36 6.24-.36.44.78 2.35 6.5 2.84 7.91-.83.19-1.78.29-2.72.38l-.13.57c.73-.06 3.78-.11 4.56-.11 1.44 0 4.16.05 4.48.11l-.08-.57c-.81-.11-1.59-.22-2.37-.38zM157 236.41c.27-.898 2.023-5.568 2.86-7.97h.055c.46 1.484 2.16 6.29 2.753 8.07l-5.666-.107zm46.9-9.34l.08.56c.352.055 1.54.243 2.107.38-.08 1.106-4.237 7.395-4.67 8.18-.837-1.43-3.59-5.37-5.183-8.18.62-.136 1.835-.27 2.32-.38l.136-.565c-.378.052-2.187.106-3.725.106-2.455 0-4.237-.05-4.696-.1l.1.57c.54.11 1.54.22 1.89.38 1.24 1.16 6.37 8.77 6.59 9.48.08.7.08 1.41.08 1.78v.87c0 1.73-.03 4.7-.14 5.1-.62.16-1.87.33-2.38.38l-.14.57c.75-.05 2.72-.11 3.7-.11 1.83 0 4.26.06 4.83.11l-.06-.56c-.52-.08-2.3-.29-2.62-.37-.11-.67-.14-4.29-.14-5.02v-1.03c0-.65.02-1.46.11-1.92.37-1.19 5.94-9.07 6.53-9.26.56-.16 1.43-.29 1.83-.37l.08-.56c-.62.05-2.03.1-3.27.1-1.49 0-3-.05-3.4-.11zm35.453 8.82v-.08c.893-.377 2.484-1.24 3.48-2.807.677-1.08.704-1.755.704-2.537 0-1.268-.81-3.51-6.072-3.51-1.7 0-6.853.19-7.744.22l.14.564c.79.055 1.86.11 2.78.27.11 1.108.19 5.32.19 7.263v1.7c0 2.375 0 6.397-.19 8.26-.56.162-2.18.324-2.8.378l-.1.57c.78-.05 3.51-.1 4.11-.1.57 0 1.57.06 2.51.11.97.06 1.89.11 2.27.11 3.75 0 6.29-2.08 6.29-5.18 0-2.86-2.86-4.78-5.53-5.21zm-3.616-1.51c0-2.43.026-6.263.08-6.532.243-.108.65-.16 1.08-.16 2.214 0 3.646 1.565 3.646 3.89 0 1.374-.57 2.67-1.568 3.4-1.027.754-2.404.915-3.24.915v-1.51zm2.484 11.04c-.54 0-1.54-.136-2.16-.567-.13-.35-.32-4.373-.32-6.694v-1.46c.65-.08 2.11.08 3.19.64 1.84.97 2.95 3.05 2.95 4.78 0 1.86-1.08 3.29-3.64 3.29zm38.96-18.355l.19.564c.71.05 2.33.27 2.95.38.11.89.14 5.83.14 6.69v2.48c0 3.24-.35 5.61-1.81 6.99-.92.86-2.1 1.29-3.88 1.29-2.91 0-5.34-1.95-5.34-7.67v-3.59c0-2.32.06-5.75.14-6.21.87-.16 2.08-.3 2.81-.38l.14-.57c-.67.05-2.75.1-3.99.1-2.08 0-3.8-.05-4.56-.11l.08.56c.73.11 1.57.24 2.13.38.09.75.14 3.67.14 6.1v4.21c0 4.72 2.57 8.18 8.16 8.18 2.67 0 4.4-.79 5.64-1.89 2.08-1.84 2.65-4.43 2.65-7.48 0-.98-.05-2.27-.05-3.32v-1.29c0-.73.05-4.11.136-4.51.703-.16 1.43-.27 1.89-.38l.163-.57c-.46.05-1.89.1-3.3.1-1.67 0-3.7-.06-4.37-.11zm37.72 10.633l.16.567c.52.11 2.19.245 2.73.3.09.484.11 1.32.11 2.16v1.43c0 1.35-.02 2.267-.08 2.672-1.13.594-2.73.7-3.43.7-5.83 0-9.58-5.64-9.58-10.04 0-4.32 3.13-7.8 7.83-7.8 4.4 0 6.32 1.78 7.02 2.617.11.62.24 1.565.3 2.483l.62.326c-.08-2.51.22-7.287.38-8.34l-.62.135c-.08.567-.38 2.08-.48 2.51-.89-.322-3.72-.674-6.04-.674-2.75 0-5.48.513-7.93 2.187-2.37 1.62-4.26 4.35-4.26 8.16 0 3.38 1.97 6.43 5.37 8.13 2.27 1.14 5.4 1.3 7.16 1.3 1.84 0 5.35-.43 6.91-.89-.05-.75-.05-2.19-.05-3.18v-.86c0-.75.03-2.53.11-2.99.6-.13 2.1-.27 2.35-.29l.13-.57c-.32.06-2.94.08-4.24.08-.94.01-3.02-.02-4.42-.08zm33.27-3.4c-2.05-1.296-3.88-2.24-3.88-3.995 0-1.217.97-2.7 3.3-2.7 1.89 0 3.29 1.456 3.59 2.43.06.484.11 1.132.11 2.05l.62.27c0-2.213.27-4.724.65-7.395l-.62.08c-.16.73-.29 1.54-.48 2.19-.65-.16-2.05-.485-3.64-.485-3.99 0-5.56 2.646-5.56 4.75 0 3.05 2.11 4.563 4.75 6.29 1.76 1.134 3.46 2.214 3.46 4.4 0 1.997-1.7 3.4-3.83 3.4-1.86 0-3.45-1.214-4.18-2.94-.08-.487-.21-2.025-.19-2.377l-.62-.16c.08.647-.08 3.562-.08 4.265 0 1.06-.38 4.05-.43 4.43l.62-.16c.19-1 .46-2.29.59-2.81.76.4 2.43.67 3.73.67 3.67 0 6.64-2.13 6.64-5.88 0-3.4-2.26-4.91-4.5-6.32zM57 143.666v-15.25l8.796 15.25h8.08l-15.597-27.04L196 37.044v106.622h7v-107.2l138.72 80.16-15.598 27.04h8.082L343 128.418v15.248h7v-30.34l-150-86.68-150 86.68v30.34m293 112.668v26.3l-133.442 77.11 59.653-103.41h-8.08L203 357.104v-100.77h-7v99.037l-57.13-99.03h-8.08l59.65 103.41L57 282.64v-26.3h-7v30.34l150 86.674 150-86.676v-30.34"/>
</symbol>
<symbol id="icon-heart" viewBox="0 0 32 32">
<title>heart</title>
<path class="icon-path" d="M23.6 2c-3.363 0-6.258 2.736-7.599 5.594-1.342-2.858-4.237-5.594-7.601-5.594-4.637 0-8.4 3.764-8.4 8.401 0 9.433 9.516 11.906 16.001 21.232 6.13-9.268 15.999-12.1 15.999-21.232 0-4.637-3.763-8.401-8.4-8.401z"></path>
</symbol>
<symbol id="icon-chevron-down" viewBox="0 0 1024 1024">
<title>chevron down</title>
<path class="icon-path" d="M0 307.2c0-6.552 2.5-13.102 7.5-18.1 9.996-10 26.205-10 36.202 0L486.4 731.796 929.1 289.1c9.996-10 26.205-10 36.202 0s9.998 26.205 0 36.202l-460.8 460.8c-9.997 9.998-26.206 9.998-36.203 0L7.5 325.302c-5-5-7.5-11.55-7.5-18.102z" />
</symbol>
<symbol id="icon-github" viewBox="0 0 32 32">
<title>github</title>
<path class="icon-path" d="M27.779 14.169c0.112-0.708 0.186-1.528 0.186-2.423 0-3.839-1.826-5.181-2.199-5.815 0.522-2.907-0.075-4.212-0.373-4.66-1.044-0.373-3.616 0.969-5.032 1.864-2.311-0.671-7.157-0.596-8.946 0.186-3.355-2.385-5.144-2.050-5.144-2.050s-1.155 2.050-0.298 5.069c-1.118 1.417-1.938 2.386-1.938 5.032 0 0.634 0.037 1.23 0.112 1.789 1.006 5.032 4.958 7.194 8.871 7.567-0.596 0.447-1.305 1.305-1.379 2.274-0.745 0.485-2.199 0.634-3.355 0.261-1.603-0.522-2.236-3.69-4.66-3.243-0.522 0.112-0.41 0.447 0.037 0.745 0.745 0.485 1.417 1.081 1.976 2.348 0.41 0.969 1.267 2.721 3.988 2.721 1.081 0 1.826-0.112 1.826-0.112s0.037 2.498 0.037 3.466c0 1.118-1.491 1.417-1.491 1.976 0 0.224 0.485 0.224 0.895 0.224 0.783 0 2.423-0.671 2.423-1.826v-4.547c0-1.193 0.634-1.566 0.634-1.566s0.075 6.337-0.149 7.157c-0.261 1.006-0.745 0.857-0.745 1.305 0 0.671 1.976 0.149 2.647-1.305 0.522-1.118 0.298-7.343 0.298-7.343h0.522v4.138c-0.037 1.342-0.149 3.057 0.634 3.839 0.522 0.522 2.125 1.454 2.125 0.596 0-0.485-1.118-0.895-1.118-2.236v-6.15c0.671 0 0.82 2.013 0.82 2.013l0.261 3.728s-0.149 1.379 1.454 1.938c0.559 0.186 1.826 0.261 1.864-0.075 0.075-0.336-1.491-0.857-1.491-1.901 0-0.634 0.037-1.006 0.037-3.802s-0.373-3.839-1.677-4.66c3.728-0.373 7.641-2.087 8.35-6.523z"></path>
</symbol>
<symbol id="icon-codepen" viewBox="0 0 32 32">
<title>codepen</title>
<path class="icon-path" d="M17.050 1.259c-0.882-0.546-2.016-0.546-2.855 0.042l-12.764 8.649c-0.672 0.462-1.092 1.218-1.092 2.016v9.321c0 0.84 0.42 1.596 1.134 2.057l12.974 8.355c0.84 0.546 1.931 0.546 2.813 0l13.226-8.482c0.714-0.462 1.134-1.218 1.134-2.057v-9.153c0-0.84-0.42-1.596-1.134-2.057l-13.436-8.691zM26.959 11.378l-4.87 3.191-4.576-3.233-0.042-6.382 9.489 6.424zM14.11 4.954v6.256l-4.702 3.191-4.702-3.065 9.405-6.382zM3.446 14.401l3.023 1.973-3.023 2.057v-4.031zM14.195 27.753l-9.447-6.172 4.744-3.233 4.744 3.107c-0.042 0-0.042 6.298-0.042 6.298zM12.389 16.332l3.065-2.099 3.569 2.267-3.149 2.099-3.485-2.267zM17.553 27.753v-6.298l4.535-2.939 4.87 3.107-9.405 6.13zM28.302 18.557l-3.233-2.057 3.233-2.099v4.157z"></path>
</symbol>
<symbol id="icon-mail" viewBox="0 0 32 32">
<title>mail</title>
<path class="icon-path" d="M20.58 17.394c-0.050-0.1-0.149-0.149-0.299-0.050l-3.335 1.941c-0.398 0.249-0.846 0.249-1.245 0l-2.887-1.643c-0.1-0.050-0.199-0.050-0.299 0l-11.101 10.255c-0.050 0.050-0.050 0.1-0.050 0.249 0 0.050 0.050 0.1 0.1 0.199 0.249 0.050 0.398 0.1 0.498 0.1h28.325c0.050 0 0.149-0.050 0.249-0.1 0-0.149 0-0.249-0.050-0.299l-9.906-10.653z"></path>
<path class="icon-path" d="M10.076 16.448c0.050-0.050 0.050-0.1 0.050-0.199s-0.050-0.199-0.1-0.199l-8.612-4.928c-0.1-0.050-0.199-0.050-0.299 0-0.050 0-0.1 0.050-0.1 0.199v12.993c0 0.1 0.050 0.199 0.199 0.249h0.1c0.050 0 0.1 0 0.1-0.050l8.662-8.064z"></path>
<path class="icon-path" d="M31.432 10.873h-0.249l-8.214 4.878c-0.050 0-0.1 0.050-0.1 0.199-0.050 0.050 0 0.1 0.050 0.199l8.214 8.861c0.050 0.050 0.149 0.1 0.199 0.1h0.1c0.1-0.1 0.199-0.199 0.199-0.249v-13.739c0-0.1-0.050-0.199-0.199-0.249z"></path>
<path class="icon-path" d="M30.635 3.555h-28.673c-0.299 0-0.498 0.1-0.747 0.249-0.199 0.199-0.299 0.448-0.299 0.747v3.186c0 0.149 0.050 0.249 0.199 0.249l15.133 8.612c0.050 0 0.149 0 0.199-0.050l14.586-8.512c0.050-0.050 0.149-0.050 0.199-0.050s0.1 0 0.199-0.050c0.149 0 0.249-0.050 0.249-0.249v-3.086c0-0.299-0.1-0.597-0.299-0.747-0.249-0.199-0.498-0.299-0.747-0.299z"></path>
</symbol>
<symbol id="icon-rss" viewBox="0 0 32 32">
<title>rss</title>
<path class="icon-path" d="M15.205 16.333c-4.66-4.259-12.99-5.259-12.99-5.259-0.936 0-1.699 0.635-1.699 1.548v2.899c0 0.912 0.763 1.549 1.699 1.553 0 0 5.354 0.137 8.57 3.040 4.245 3.833 4.13 9.149 4.13 9.149 0 0.916 0.443 1.658 1.382 1.658h3.293c0.938 0 1.167-0.742 1.167-1.658 0 0-0.784-8.579-5.552-12.929zM4.924 22.814c-2.326 0-4.213 1.837-4.213 4.101 0 2.27 1.887 4.104 4.213 4.104 2.329 0 4.217-1.834 4.217-4.104 0-2.264-1.887-4.101-4.217-4.101zM23.546 10.576c-7.331-8.608-21.33-9.54-21.33-9.54-0.936 0-1.699 0.639-1.699 1.555v2.895c0 0.916 0.763 1.55 1.699 1.55 0 0 10.004 0.315 15.646 6.805 7.734 7.746 7.146 15.489 7.146 15.489 0 0.915 0.76 1.655 1.701 1.655h3.293c0.94 0 1.489-0.74 1.489-1.655 0 0-0.696-12.179-7.945-18.754z"></path>
</symbol>
<symbol id="icon-twitter" viewBox="0 0 32 32">
<title>twitter</title>
<path class="icon-path" d="M32.010 7.547c-1.178 0.52-2.444 0.869-3.773 1.028 1.356-0.807 2.397-2.086 2.888-3.606-1.268 0.746-2.675 1.287-4.17 1.582-1.198-1.268-2.905-2.060-4.793-2.060-3.627 0-6.568 2.918-6.568 6.519 0 0.507 0.058 1.008 0.17 1.485-5.457-0.274-10.296-2.868-13.536-6.809-0.564 0.962-0.889 2.080-0.889 3.274 0 2.263 1.16 4.256 2.922 5.425-1.076-0.033-2.089-0.328-2.974-0.816-0.001 0.027-0.001 0.054-0.001 0.083 0 3.158 2.264 5.791 5.268 6.39-0.551 0.149-1.131 0.227-1.73 0.227-0.423 0-0.835-0.039-1.236-0.116 0.835 2.59 3.261 4.474 6.135 4.525-2.248 1.748-5.080 2.791-8.156 2.791-0.531 0-1.053-0.031-1.567-0.093 2.906 1.85 6.358 2.929 10.067 2.929 12.079 0 18.684-9.93 18.684-18.541 0-0.282-0.006-0.564-0.018-0.843 1.284-0.92 2.396-2.067 3.277-3.374z"></path>
</symbol>
<symbol id="icon-weibo" viewBox="0 0 32 32">
<title>sina-weibo</title>
<path class="icon-path" d="M31.601 14.102c0 0.002 0 0.003 0 0.005-0.209 0.643-0.9 0.996-1.544 0.788-0.645-0.208-0.998-0.899-0.79-1.545h-0.001c0.64-1.981 0.234-4.241-1.259-5.898s-3.698-2.289-5.735-1.857c-0.663 0.141-1.314-0.282-1.455-0.944-0.142-0.661 0.28-1.313 0.943-1.456h0.001c2.863-0.609 5.964 0.28 8.067 2.614 2.103 2.33 2.671 5.507 1.773 8.293zM23.11 9.519v-0.001c-0.568 0.124-1.13-0.241-1.251-0.81-0.122-0.571 0.241-1.132 0.811-1.253 1.395-0.298 2.906 0.134 3.93 1.27s1.3 2.683 0.861 4.041c-0.179 0.555-0.774 0.858-1.328 0.681-0.555-0.18-0.858-0.776-0.679-1.33h-0.002c0.215-0.664 0.080-1.421-0.42-1.976s-1.239-0.765-1.922-0.621zM23.533 11.494c0.554 0.792 0.501 1.903-0.010 3.19-0.236 0.592 0.073 0.684 0.524 0.82 1.836 0.569 3.881 1.948 3.881 4.375 0 4.019-5.792 9.081-14.499 9.081-6.641 0-13.431-3.221-13.431-8.519 0-2.769 1.754-5.972 4.773-8.994 4.033-4.034 8.735-5.872 10.504-4.101 0.78 0.78 0.855 2.131 0.354 3.744-0.261 0.812 0.762 0.362 0.762 0.364 3.26-1.366 6.103-1.446 7.143 0.040zM22.42 19.806c-0.343-3.48-4.918-5.878-10.219-5.354-5.299 0.525-9.318 3.772-8.974 7.253s4.919 5.878 10.219 5.355c5.301-0.524 9.317-3.772 8.974-7.255zM10.019 25.565c-2.548-0.823-3.626-3.34-2.511-5.608 1.096-2.224 3.945-3.481 6.467-2.825 2.61 0.675 3.942 3.139 2.876 5.531-1.082 2.448-4.193 3.753-6.832 2.902zM11.458 20.799c-0.821-0.344-1.881 0.009-2.388 0.804-0.513 0.798-0.272 1.749 0.543 2.12 0.827 0.378 1.924 0.019 2.437-0.799 0.503-0.827 0.238-1.771-0.592-2.125zM13.481 19.96c-0.315-0.125-0.708 0.026-0.893 0.336-0.179 0.311-0.080 0.666 0.235 0.796 0.321 0.132 0.731-0.020 0.916-0.337 0.177-0.319 0.062-0.678-0.258-0.795z"></path>
</symbol>
<symbol id="icon-zhihu" viewBox="0 0 32 32">
<title>zhihu</title>
<path class="icon-path" d="M26.182 27.151l-4.849 4.849v-4.849h-2.909v-22.303l12.596 0.164 0.010-0.164v22.303h-4.849zM28.121 7.758h-6.788v17.422l0.97 0.033v1.939l3.736-1.99 2.082 0.050v-17.455zM11.636 17.455c-1.010 0.010-1.043-0.212-1.089 0.878-0.029 0.693-0.243 1.378-0.374 2.066l-0.859 2.763c-0.696 1.816-1.484 3.581-2.768 5.092-1.274 1.496-3.009 1.705-4.803 1.768-0.279 0.010-0.666 0.054-0.766-0.312-0.093-0.344 0.245-0.524 0.465-0.701 1.89-1.528 3.22-2.641 4.376-4.765 0.937-1.72 1.633-2.913 1.939-4.849 0.131-0.829-0.18-1.962-0.97-1.939-1.466 0.042-4.351-0.015-5.818 0-0.047-0.005 0.13-0.469 0.282-0.954 0.314-1.057 1.049-1.92 1.873-1.905 1.279 0.023 1.416-0.091 2.694-0.050 0.81 0.026 1.948-0.128 1.939-0.97-0.019-1.901-0.053-3.919 0-5.818 0.016-0.545 0.382-0.769-0.134-0.812-1.677-0.137-1.841-0.060-2.635 1.474-0.648 1.25-1.984 1.959-3.337 2.294-0.73 0.181-0.655 0.156-0.562-0.064 1.071-2.514 2.233-5.721 3.248-8.247 0.417-1.038 2.182-1.795 3.203-2.378 0 0 0.239-0.173 0.005 0.553-0.251 0.782-0.585 2.202-0.863 2.973-0.292 0.806-0.146 1.223 0.677 1.216 2.446-0.020 5.026 0 7.473 0 0.577 0 1.068-0.097 1.429 0.514 1.176 1.984 0.91 1.649-0.235 1.667-0.978 0.016-2.443-0.127-3.42-0.16-0.74-0.025-1.785 0.378-1.819 1.161-0.091 2.122-0.149 3.687-0.12 5.627 0.011 0.689 1.451 0.971 1.939 0.97 1.279-0.002 1.444 0.028 2.723 0.050 1.044 0.017 1.761 0.864 2.126 1.889 0.026 0.324 0.261 0.881 0 0.97-1.335-0.014-4.501-0.013-5.818 0zM15.515 25.212c0.381 0.565 0.431 1.574 0 2.909-0.085 0.266-0.604 0.133-1.166-0.507-1.357-1.548-2.601-3.188-3.913-4.773-0.367-0.443-0.587-0.694-0.754-0.746l1.954-1.732c0.894 1.056 2.987 3.791 3.879 4.848z"></path>
</symbol>
<symbol id="icon-bilibili" viewBox="0 0 32 32">
<title>bilibili</title>
<path class="icon-path" d="M31.364 28.407c-0.273 0.001-0.55 0.025-0.821-0.004-0.992-0.108-1.716 1.020-2.060 2.208-0.31 1.070-1.486 1.617-2.545 1.507-1.223-0.126-2.032-0.825-2.344-1.93-0.188-0.668-0.754-1.186-1.378-1.182-4.303 0.025-8.13 0.013-12.434 0-0.495-0.001-1.024 0.473-1.169 1.057-0.31 1.252-1.374 2.046-2.552 2.066-1.22 0.021-2.279-0.753-2.635-2.053-0.149-0.544-0.401-1.708-0.921-1.679-0.669 0.037-1.343 0.019-2.014 0.007-0.734-0.013-1.058-0.308-1.058-1.004 0.005-7.080 0.016-14.159 0.034-21.239 0.002-0.732 0.306-0.978 1.149-0.979 3.457-0.004 6.915-0.002 10.373-0.002 0.241 0 0.483 0 0.723 0 0.022-0.059 0.045-0.119 0.066-0.179-0.803-0.422-1.606-0.843-2.408-1.266-1.331-0.703-2.665-1.403-3.994-2.108-0.539-0.286-0.763-0.722-0.458-1.263 0.308-0.547 0.816-0.58 1.348-0.3 3.122 1.646 6.245 3.291 9.355 4.955 0.797 0.427 2.231 0.171 2.744-0.55 1.591-2.242 3.18-4.484 4.77-6.728 0.056-0.079 0.11-0.16 0.168-0.238 0.454-0.609 0.969-0.774 1.437-0.414 0.542 0.415 0.449 0.909 0.1 1.403-0.646 0.915-1.291 1.829-1.935 2.744-0.893 1.268-1.785 2.538-2.777 3.947 0.406 0 0.666 0 0.926 0 3.434 0 6.867-0.001 10.299 0.001 1.049 0.001 1.21 0.16 1.211 1.179 0.010 6.959 0.020 13.917 0.026 20.876 0.001 0.995-0.182 1.163-1.229 1.17zM26.204 30.489c0.549-0.036 0.81-1.491 0.977-2.041-0.714 0-1.346 0-2.076 0 0.204 0.605 0.487 2.083 1.099 2.041zM5.968 30.49c0.608 0.037 0.895-1.433 1.076-2.037-0.719 0-1.348 0-2.045 0 0.139 0.569 0.425 2.004 0.969 2.037zM30.506 7.247c-9.935 0-19.135 0-29.012 0 0 6.696 0 13.030 0 19.687 9.925 0 19.086 0 29.012 0 0-6.706 0-13.022 0-19.687zM3.566 11.269c0.002-0.959 0.465-1.897 1.431-1.898 7.37-0.001 14.154-0.054 21.524-0.052 0.98 0 1.91 1.001 1.913 1.95 0.013 4.578-0.007 8.101 0 12.678 0.002 0.978-0.885 1.949-1.913 1.95-3.674 0.002-6.848 0-10.521 0s-6.847 0.002-10.521 0c-1.069-0.001-1.914-0.896-1.913-1.95 0.005-4.555-0.008-8.123 0-12.678zM26.669 23.806c0-4.328-0.148-8.3-0.148-12.536-7.112 0-13.993 0-21.042 0 0 4.303-0.025 8.272-0.025 12.536 7.098 0 14.134 0 21.215 0zM11.449 13.793c0.060-0.027 0.135-0.022 0.386-0.058 0.146 0.143 0.515 0.34 0.554 0.586 0.045 0.288-0.11 0.79-0.333 0.903-1.362 0.691-2.76 1.314-4.162 1.924-0.427 0.186-0.896 0.046-1.005-0.41-0.071-0.298 0.057-0.865 0.271-0.973 1.403-0.71 2.853-1.328 4.289-1.973zM11.877 18.412c0.265-0.009 0.608 0.357 0.8 0.637 0.153 0.223 0.089 0.579 0.197 0.848 0.204 0.513 0.588 1.001 1.156 0.881 0.42-0.088 0.803-0.508 1.118-0.856 0.155-0.172 0.129-0.512 0.167-0.778 0.071-0.501 0.367-0.81 0.862-0.798 0.453 0.011 0.747 0.285 0.805 0.775 0.037 0.31 0.046 0.694 0.231 0.9 0.296 0.329 0.723 0.727 1.105 0.74 0.346 0.011 0.767-0.407 1.039-0.73 0.181-0.215 0.171-0.594 0.228-0.903 0.092-0.494 0.378-0.795 0.89-0.755 0.509 0.039 0.776 0.367 0.756 0.878-0.049 1.296-0.564 2.35-1.778 2.928-1.131 0.54-2.188 0.308-3.115-0.522-0.050-0.045-0.11-0.077-0.172-0.119-0.282 0.196-0.543 0.423-0.842 0.579-0.979 0.511-1.959 0.468-2.863-0.16-0.997-0.694-1.441-1.706-1.352-2.882 0.019-0.255 0.491-0.654 0.767-0.663zM19.105 13.733c0.24-0.421 0.667-0.536 1.066-0.309 1.584 0.903 3.151 1.836 4.707 2.783 0.186 0.113 0.273 0.384 0.339 0.482 0.018 0.77-0.62 1.189-1.206 0.858-1.568-0.884-3.109-1.814-4.649-2.748-0.406-0.247-0.492-0.656-0.257-1.066z"></path>
</symbol>
<symbol id="icon-douban" viewBox="0 0 32 32">
<title>douban</title>
<path class="icon-path" d="M9.955 20.173c1.256 1.714 2.389 3.87 3.382 6.288h6.097c1.186-1.866 2.102-4.024 2.997-6.288l3.441 1.156c-0.9 1.909-1.994 3.681-3.023 5.132h8.537l0.043 3.038h-30.857v-2.893l9.351-0.146c-0.807-1.562-1.826-3.329-3.132-5.132l3.165-1.156zM1.536 2.5h28.929v2.893h-28.929v-2.893zM4.556 8.172l23.016 0.114v11.571h-23.143l0.127-11.685zM24.679 16.964l0.122-5.942-17.479 0.156v5.786h17.357z"></path>
</symbol>
<symbol id="icon-netease-music" viewBox="0 0 32 32">
<title>netease-music</title>
<path class="icon-path" d="M21.439-0.014c0.33 0.053 0.664 0.090 0.992 0.161 1.148 0.248 2.177 0.745 3.085 1.475 0.596 0.478 0.839 1.102 0.666 1.841-0.155 0.664-0.589 1.112-1.259 1.304-0.634 0.181-1.207 0.043-1.727-0.364-0.66-0.518-1.392-0.875-2.269-0.799-0.744 0.065-1.454 0.83-1.39 1.513 0.028 0.306 0.14 0.604 0.219 0.905 0.14 0.531 0.285 1.061 0.427 1.592 0.024 0.091 0.048 0.164 0.179 0.171 1.998 0.106 3.799 0.743 5.403 1.922 1.577 1.16 2.869 2.552 3.735 4.3 0.635 1.284 0.991 2.639 1.085 4.061 0.125 1.891-0.102 3.74-0.854 5.486-1.749 4.058-4.824 6.676-9.147 7.879-1.645 0.458-3.331 0.637-5.037 0.542-3.547-0.198-6.62-1.509-9.208-3.88-2.554-2.338-4.147-5.213-4.7-8.588-0.754-4.591 0.402-8.707 3.46-12.277 1.679-1.961 3.775-3.374 6.219-4.286 0.842-0.315 1.764-0.022 2.226 0.697 0.472 0.735 0.361 1.681-0.293 2.265-0.184 0.166-0.418 0.296-0.651 0.39-3.726 1.488-6.187 4.109-7.165 7.932-0.949 3.708-0.11 7.103 2.312 10.094 1.518 1.875 3.48 3.134 5.853 3.752 1.534 0.4 3.084 0.425 4.647 0.189 1.612-0.244 3.118-0.762 4.469-1.667 1.858-1.245 3.182-2.904 3.844-5.016 0.571-1.823 0.591-3.664-0.115-5.473-0.568-1.456-1.574-2.576-2.834-3.5-0.673-0.494-1.396-0.879-2.22-1.068-0.038-0.008-0.076-0.013-0.144-0.024 0.113 0.422 0.217 0.823 0.326 1.223 0.262 0.964 0.529 1.927 0.786 2.892 0.558 2.099 0.018 3.937-1.459 5.503-1.367 1.449-3.106 2.080-5.1 1.891-2.221-0.211-3.807-1.39-4.841-3.3-0.542-1-0.776-2.077-0.819-3.205-0.069-1.796 0.36-3.453 1.411-4.936 1.129-1.592 2.693-2.613 4.541-3.247 0.145-0.050 0.293-0.095 0.463-0.151-0.1-0.37-0.203-0.73-0.293-1.094-0.123-0.501-0.281-0.999-0.344-1.507-0.183-1.504 0.289-2.811 1.351-3.907 0.87-0.896 1.924-1.464 3.187-1.635 0.139-0.019 0.278-0.040 0.417-0.059 0.189 0 0.378 0 0.568 0zM17.495 11.658c-1.095 0.341-2.040 0.86-2.748 1.724-0.948 1.158-1.137 2.488-0.835 3.9 0.157 0.734 0.524 1.362 1.168 1.8 0.805 0.548 1.901 0.524 2.743-0.045 0.86-0.584 1.243-1.524 0.992-2.488-0.275-1.056-0.568-2.108-0.853-3.162-0.153-0.567-0.307-1.135-0.467-1.73z"></path>
</symbol>
<symbol id="icon-v2ex" viewBox="0 0 32 32">
<title>v2ex</title>
<path class="icon-path" d="M19.549 2.508h-17.378c-0.639 0-1.158 0.508-1.158 1.135v7.857h16.297c0.339 0 0.663 0.136 0.895 0.378l3.782 3.919c0.085 0.088 0.085 0.224 0.001 0.312l-3.782 3.957c-0.233 0.244-0.489 0.444-0.83 0.444h-16.363v7.866c0 0.627 0.519 1.136 1.158 1.136h17.374c0.383 0 0.75-0.149 1.021-0.415l11.738-11.518c0.915-0.897 0.912-2.352-0.007-3.246l-11.732-11.415c-0.27-0.263-0.635-0.41-1.016-0.41z"></path>
</symbol>
<symbol id="icon-circle">
<circle cx="50%" cy="50%" r="50%"/>
</symbol>
<symbol id="icon-github-circle" viewBox="0 0 32 32">
<title>github</title>
<use xlink:href="#icon-circle" fill="#5f5f5f"></use>
<use xlink:href="#icon-github" height="19" y="7" fill="#fff"></use>
</symbol>
<symbol id="icon-codepen-circle" viewBox="0 0 32 32">
<title>codepen</title>
<use xlink:href="#icon-circle" fill="#000"></use>
<use xlink:href="#icon-codepen" width="20" x="6" fill="#fff"></use>
</symbol>
<symbol id="icon-mail-circle" viewBox="0 0 32 32">
<title>mail</title>
<use xlink:href="#icon-circle" fill="#dd4b39"></use>
<use xlink:href="#icon-mail" width="20" x="6" fill="#fff"></use>
</symbol>
<symbol id="icon-rss-circle" viewBox="0 0 32 32">
<title>rss</title>
<use xlink:href="#icon-circle" fill="#fc9a2a"></use>
<use xlink:href="#icon-rss" width="16" x="9" fill="#fff"></use>
</symbol>
<symbol id="icon-twitter-circle" viewBox="0 0 32 32">
<title>twitter</title>
<use xlink:href="#icon-circle" fill="#1da1f2"></use>
<use xlink:href="#icon-twitter" width="20" x="7" fill="#fff"></use>
</symbol>
<symbol id="icon-weibo-circle" viewBox="0 0 32 32">
<title>sina-weibo</title>
<use xlink:href="#icon-circle" fill="#e6162d"></use>
<use xlink:href="#icon-weibo" width="20" x="6" fill="#fff"></use>
</symbol>
<symbol id="icon-zhihu-circle" viewBox="0 0 32 32">
<title>zhihu</title>
<use xlink:href="#icon-circle" fill="#086acd"></use>
<use xlink:href="#icon-zhihu" width="20" x="6" fill="#fff"></use>
</symbol>
<symbol id="icon-bilibili-circle" viewBox="0 0 32 32">
<title>bilibili</title>
<use xlink:href="#icon-circle" fill="#f489ad"></use>
<use xlink:href="#icon-bilibili" width="20" x="6" fill="#fff"></use>
</symbol>
<symbol id="icon-douban-circle" viewBox="0 0 32 32">
<title>douban</title>
<use xlink:href="#icon-circle" fill="#259235"></use>
<use xlink:href="#icon-douban" width="20" x="6" fill="#fff"></use>
</symbol>
<symbol id="icon-netease-music-circle" viewBox="0 0 32 32">
<title>netease-music</title>
<use xlink:href="#icon-circle" fill="#ea0606"></use>
<use xlink:href="#icon-netease-music" width="22" x="4.8" y="-.5" fill="#fff"></use>
</symbol>
<symbol id="icon-v2ex-circle" viewBox="0 0 32 32">
<title>v2ex</title>
<use xlink:href="#icon-circle" fill="#1e1e1f"></use>
<use xlink:href="#icon-v2ex" width="20" x="7" fill="#fff"></use>
</symbol>
</defs>
</svg>
