<svg style="position: absolute; width: 0; height: 0; overflow: hidden;" version="1.1" xmlns="http://www.w3.org/2000/svg" xmlns:xlink="http://www.w3.org/1999/xlink">
<defs>
<symbol id="icon-crimx" viewBox="0 0 32 32">
<path d="M5.134 13.65c0-.146-.025-.525-.045-.654-.145-.353-.864-.924-1.864-.924-1.414 0-2.296 1.053-2.296 2.29 0 1.55 1.24 2.86 2.882 2.86.585 0 1.288-.093 1.837-.425l-.107.34c-.182.15-.965.48-2.18.48-.29 0-1.136-.027-1.758-.35C.595 16.756 0 15.853 0 14.836c0-1.098.542-1.9 1.227-2.37.802-.555 1.522-.656 2.306-.656.686 0 1.405.14 1.62.204.046-.102.138-.608.163-.71l.18-.038c-.115.877-.16 1.698-.17 2.455l-.192-.07zm2.965.472c0-.286-.01-1.81-.037-1.957-.136-.027-.657-.083-.828-.093l-.026-.166 1.673-.01c.74 0 1.658.01 2.188.223.416.165.668.47.668.903 0 .498-.494 1.162-1.09 1.505.08.202 1.333 2.278 2.134 3.146l-.342.057c-.54-.258-2.603-2.694-2.73-2.86-.296.028-.61.047-.747.047v.203c0 .517.02 1.734.037 2.104.135.037.64.094.81.11l.027.166c-.198-.02-.974-.027-1.334-.027-.314 0-1.135.02-1.306.027l.026-.166c.107-.01.604-.056.818-.11.028-.23.038-1.79.038-2.622v-.48h.02zm.862.554c.28 0 .613-.026.947-.146.33-.13.88-.49.88-1.274 0-.508-.45-1.125-1.79-1.125-.028.323-.038 1.745-.038 2.31v.236zm6.918.037c0 1.033.01 2.354.035 2.52.198.047.657.094.812.11l.036.166c-.172-.02-.973-.027-1.46-.027-.26 0-.972.02-1.206.026l.027-.167c.135-.01.656-.083.818-.11.027-.33.036-1.8.036-2.583v-.472c0-.26-.01-1.745-.036-2.013-.152-.027-.667-.093-.81-.11l-.037-.166c.144.018.854.026 1.468.026.396 0 1.063-.02 1.188-.027l-.034.165c-.152.02-.53.083-.81.11-.028.157-.036 1.08-.036 2.058v.49h.01zm7.43 2.63c.107-.01.693-.083.855-.092-.02-.294-.692-3.866-.783-4.457h-.026c-.207.48-1.737 4.292-1.964 4.744-.217-.49-1.676-4.46-1.766-4.754H19.6c-.198 1.22-.657 3.425-.632 4.45.137.025.576.092.695.108l.025.167c-.107-.018-1.01-.026-1.152-.026-.207 0-.604.02-.855.027l.056-.166c.135-.025.378-.054.55-.1.17-.5 1.02-4.422 1.134-5.077-.205-.027-.684-.093-.765-.11l-.046-.166c.1.02.702.027 1.116.027.333 0 .945-.02 1.162-.027l-.027.166c-.215.027-.433.083-.585.11.227.72 1.17 3.323 1.415 3.923.226-.452 1.567-3.738 1.576-3.923-.146-.056-.388-.083-.522-.11l-.035-.166c.25.02.772.027 1.042.027.254 0 .9-.02 1.082-.027l-.026.166c-.108.02-.487.074-.65.11.146.886.884 4.57 1.02 5.067.198.046.505.083.64.11l.037.165c-.262-.018-.73-.026-1.092-.026-.358 0-1.205.018-1.432.025l-.02-.162zm8.357.5c-1.08-.832-2.322-2.558-2.666-2.955-.206.24-1.132 1.718-1.42 2.346.17.036.503.093.638.11l.027.165c-.127 0-.71-.027-1.152-.027-.432 0-.648.02-.848.026l.055-.167c.152-.026.343-.046.486-.11.314-.202 1.773-2.262 2.026-2.594-.55-.712-1.478-2.087-1.838-2.475-.136-.046-.343-.083-.504-.11l-.027-.166c.09.018.486.026 1.188.026.415 0 .92-.02 1.234-.027l-.045.165c-.298.027-.505.074-.658.11.1.203 1.026 1.606 1.207 1.818.225-.306.99-1.412 1.187-1.818-.136-.046-.45-.093-.55-.11l-.026-.166c.182.018.586.026 1.01.026.324 0 .612-.02.8-.027l-.017.165c-.145.037-.36.083-.48.11-.134.046-1.51 1.754-1.745 2.067.45.628 1.892 2.787 2.45 3.534l-.33.076zM1.75 20.508c.007-.038.034-.314.034-.407 0-.063.018-.33.01-.396l.054.02c0 .036.01.175.02.222.062.154.206.267.378.267.188 0 .342-.13.342-.313 0-.202-.152-.306-.314-.405-.234-.158-.434-.297-.434-.583 0-.193.146-.443.506-.443.144 0 .27.028.324.047.018-.055.025-.138.045-.2l.054-.012c-.037.25-.055.48-.055.685l-.055-.028c0-.083-.01-.147-.01-.193-.025-.093-.152-.222-.324-.222-.207 0-.297.14-.297.25 0 .165.16.248.35.37.198.127.405.266.405.58 0 .35-.27.544-.594.544-.116 0-.27-.027-.332-.064l-.056.26-.053.02zm3.538-1.284c0-.185-.01-.554-.01-.607-.387 0-.566.062-.63.1-.02.057-.036.148-.045.23l-.056.02c.01-.12.037-.434.037-.628l.054.01c0 .036.01.11.02.166.035.01.458.027.782.027.352 0 .773-.02.81-.027.01-.027.028-.11.038-.156l.063-.01c-.02.056-.07.57-.08.647l-.056-.02c.01-.103.01-.203.01-.26-.062-.046-.395-.1-.63-.1-.01.062-.01.433-.01.607v.11c0 .222.01.638.01.84.045.01.27.028.315.037l.007.057c-.054-.01-.342-.01-.478-.01-.107 0-.406.01-.47.01l.01-.056c.054-.01.252-.027.315-.037.01-.192.01-.617.01-.84v-.11h-.017zm3.018-.02c0-.09 0-.57-.01-.617-.045-.01-.207-.027-.262-.027l-.01-.057h.523c.233 0 .52 0 .685.074.126.055.207.146.207.286 0 .157-.154.358-.344.47.027.065.414.712.667.988l-.108.02c-.17-.084-.818-.85-.855-.897-.09.01-.188.02-.232.02v.064c0 .167.01.545.01.665.045.01.196.026.252.037l.008.055c-.063-.01-.306-.01-.414-.01-.1 0-.352.01-.414.01l.01-.055c.036 0 .19-.02.26-.037.012-.074.012-.563.012-.822v-.166h.014zm.28.167c.09 0 .187-.01.296-.045.107-.038.28-.157.28-.397 0-.155-.146-.35-.56-.35-.01.102-.01.544-.01.73v.063h-.007zm3.755.84c.08-.008.17-.018.243-.036-.045-.13-.217-.655-.252-.73-.08 0-.468.02-.558.038-.02.036-.145.508-.17.7.062.02.143.028.206.037l.01.057c-.073-.01-.298-.01-.37-.01-.063 0-.226.01-.28.01l.01-.058c.073-.01.146-.018.208-.037.09-.155.566-1.494.604-1.587-.054-.02-.135-.026-.19-.036v-.057c.073.01.28.01.316.01.1 0 .343-.01.415-.01l-.01.057c-.062.01-.125.02-.188.036.027.11.164.498.254.767.07.193.215.608.332.83.072.02.145.027.217.038l.01.055c-.027-.01-.28-.01-.406-.01-.07 0-.343.01-.415.01l.016-.074zm-.278-1.587c-.08.222-.234.655-.262.738l.514.01c-.055-.167-.208-.61-.252-.748zm3.25 1.006c0-.037 0-.1-.008-.166-.02-.063-.48-.767-.596-.877-.035-.02-.117-.027-.17-.038l-.01-.055c.045.01.198.01.424.01.135 0 .297-.01.332-.01l-.01.055c-.044.01-.152.02-.206.037.144.258.388.617.468.756.036-.072.416-.654.424-.757-.054-.01-.162-.027-.188-.038l-.01-.055c.036.01.172.01.308.01.107 0 .232-.01.297-.01l-.01.055c-.035.01-.116.02-.16.037-.056.02-.56.747-.586.857-.01.047-.01.12-.01.176v.092c0 .065 0 .396.01.462.026.01.19.028.233.037l.01.056c-.055-.01-.27-.01-.432-.01-.09 0-.26.01-.333.01l.01-.056c.045-.01.162-.02.216-.037.01-.037.01-.313.01-.47v-.075h-.01zm2.874-.37c0-.174-.01-.57-.02-.673-.08-.02-.18-.02-.25-.027l-.01-.057c.08 0 .54-.02.692-.02.48 0 .55.204.55.323 0 .073 0 .14-.063.23-.09.146-.233.22-.314.258v.01c.245.036.496.212.496.48 0 .285-.226.478-.567.478-.036 0-.116-.01-.206-.01-.082-.01-.173-.01-.227-.01-.055 0-.3.01-.37.01l.01-.055c.054-.01.198-.02.253-.037.018-.175.018-.544.018-.767v-.136h.01v.003zm.26.056c.072 0 .2-.02.29-.083.09-.064.144-.186.144-.314 0-.21-.127-.358-.324-.358-.036 0-.072.01-.1.02-.01.026-.01.378-.01.6v.136zm0 .213c0 .212.02.58.027.62.054.034.145.055.197.055.234 0 .324-.13.324-.306 0-.158-.1-.353-.26-.443-.102-.056-.227-.064-.29-.056l.002.13zm2.836-.378c0-.223-.01-.49-.01-.563-.053-.01-.125-.027-.187-.038l-.01-.055c.072.01.227.01.415.01.108 0 .298-.01.36-.01l-.01.055c-.063.01-.172.02-.252.037-.01.045-.01.36-.01.572v.332c0 .524.217.71.48.71.16 0 .27-.037.35-.12.136-.13.162-.35.162-.646v-.23c0-.083 0-.535-.01-.618-.054-.01-.197-.026-.26-.037l-.02-.055c.063.01.244.01.396.01.127 0 .253-.01.3-.01l-.02.055c-.046.01-.108.02-.17.037-.01.037-.01.353-.01.415v.12c0 .102.01.213.01.305 0 .277-.057.52-.235.692-.107.102-.27.176-.503.176-.506 0-.74-.323-.74-.757v-.387h-.025zm5.11.766c0 .093 0 .222.008.296-.145.046-.46.083-.62.083-.164 0-.442-.02-.65-.12-.306-.156-.484-.442-.484-.748 0-.352.17-.6.387-.758.226-.156.47-.203.712-.203.207 0 .47.036.54.064.01-.037.036-.176.046-.23l.056-.01c-.02.103-.047.535-.037.767l-.056-.026c-.008-.083-.018-.176-.026-.23-.063-.073-.233-.24-.63-.24-.424 0-.702.323-.702.72 0 .407.342.925.864.925.063 0 .207-.01.307-.065.01-.037.01-.12.01-.25v-.13c0-.072 0-.155-.01-.202-.046-.01-.198-.02-.243-.026l-.02-.056c.126.01.315.01.397.01.118 0 .354 0 .38-.01l-.01.057c-.02 0-.162.018-.207.026-.01.047-.01.203-.01.276l-.002.078zm1.988.59c.01-.036.037-.312.037-.405 0-.063.018-.33.008-.396l.055.02c0 .036.01.175.02.222.063.154.207.267.377.267.19 0 .342-.13.342-.313 0-.202-.152-.306-.314-.405-.233-.158-.433-.297-.433-.583 0-.193.145-.443.505-.443.144 0 .27.028.323.047.02-.055.028-.138.047-.2l.054-.012c-.035.25-.053.48-.053.685l-.056-.028c0-.083-.008-.147-.008-.193-.026-.093-.153-.222-.323-.222-.208 0-.298.14-.298.25 0 .165.16.248.352.37.197.127.404.266.404.58 0 .35-.27.544-.595.544-.116 0-.27-.027-.334-.064l-.055.26-.055.02zM2.622 10.836v-1.44l.81 1.44h.73l-1.423-2.53L15.14.96v9.876h.63V.914l12.492 7.402-1.418 2.52h.724l.81-1.44v1.44h.63V8.002L15.5 0 1.99 8.002v2.834M28.38 21.146v2.483l-12.014 7.115 5.403-9.6h-.73l-5.27 9.36v-9.36h-.628v9.203l-5.178-9.202h-.73l5.402 9.6-12.014-7.117v-2.484h-.63v2.852L15.5 32l13.51-8.002v-2.852"/>
</symbol>
<symbol id="icon-heart" viewBox="0 0 32 32">
<title>heart</title>
<path class="path1" d="M23.6 2c-3.363 0-6.258 2.736-7.599 5.594-1.342-2.858-4.237-5.594-7.601-5.594-4.637 0-8.4 3.764-8.4 8.401 0 9.433 9.516 11.906 16.001 21.232 6.13-9.268 15.999-12.1 15.999-21.232 0-4.637-3.763-8.401-8.4-8.401z"></path>
</symbol>
<symbol id="icon-github" viewBox="0 0 32 32">
<title>github</title>
<path class="icon-path" d="M27.779 14.169c0.112-0.708 0.186-1.528 0.186-2.423 0-3.839-1.826-5.181-2.199-5.815 0.522-2.907-0.075-4.212-0.373-4.66-1.044-0.373-3.616 0.969-5.032 1.864-2.311-0.671-7.157-0.596-8.946 0.186-3.355-2.385-5.144-2.050-5.144-2.050s-1.155 2.050-0.298 5.069c-1.118 1.417-1.938 2.386-1.938 5.032 0 0.634 0.037 1.23 0.112 1.789 1.006 5.032 4.958 7.194 8.871 7.567-0.596 0.447-1.305 1.305-1.379 2.274-0.745 0.485-2.199 0.634-3.355 0.261-1.603-0.522-2.236-3.69-4.66-3.243-0.522 0.112-0.41 0.447 0.037 0.745 0.745 0.485 1.417 1.081 1.976 2.348 0.41 0.969 1.267 2.721 3.988 2.721 1.081 0 1.826-0.112 1.826-0.112s0.037 2.498 0.037 3.466c0 1.118-1.491 1.417-1.491 1.976 0 0.224 0.485 0.224 0.895 0.224 0.783 0 2.423-0.671 2.423-1.826v-4.547c0-1.193 0.634-1.566 0.634-1.566s0.075 6.337-0.149 7.157c-0.261 1.006-0.745 0.857-0.745 1.305 0 0.671 1.976 0.149 2.647-1.305 0.522-1.118 0.298-7.343 0.298-7.343h0.522v4.138c-0.037 1.342-0.149 3.057 0.634 3.839 0.522 0.522 2.125 1.454 2.125 0.596 0-0.485-1.118-0.895-1.118-2.236v-6.15c0.671 0 0.82 2.013 0.82 2.013l0.261 3.728s-0.149 1.379 1.454 1.938c0.559 0.186 1.826 0.261 1.864-0.075 0.075-0.336-1.491-0.857-1.491-1.901 0-0.634 0.037-1.006 0.037-3.802s-0.373-3.839-1.677-4.66c3.728-0.373 7.641-2.087 8.35-6.523z"></path>
</symbol>
<symbol id="icon-codepen" viewBox="0 0 32 32">
<title>codepen</title>
<path class="icon-path" d="M17.050 1.259c-0.882-0.546-2.016-0.546-2.855 0.042l-12.764 8.649c-0.672 0.462-1.092 1.218-1.092 2.016v9.321c0 0.84 0.42 1.596 1.134 2.057l12.974 8.355c0.84 0.546 1.931 0.546 2.813 0l13.226-8.482c0.714-0.462 1.134-1.218 1.134-2.057v-9.153c0-0.84-0.42-1.596-1.134-2.057l-13.436-8.691zM26.959 11.378l-4.87 3.191-4.576-3.233-0.042-6.382 9.489 6.424zM14.11 4.954v6.256l-4.702 3.191-4.702-3.065 9.405-6.382zM3.446 14.401l3.023 1.973-3.023 2.057v-4.031zM14.195 27.753l-9.447-6.172 4.744-3.233 4.744 3.107c-0.042 0-0.042 6.298-0.042 6.298zM12.389 16.332l3.065-2.099 3.569 2.267-3.149 2.099-3.485-2.267zM17.553 27.753v-6.298l4.535-2.939 4.87 3.107-9.405 6.13zM28.302 18.557l-3.233-2.057 3.233-2.099v4.157z"></path>
</symbol>
<symbol id="icon-mail" viewBox="0 0 32 32">
<title>mail</title>
<path class="icon-path" d="M20.58 17.394c-0.050-0.1-0.149-0.149-0.299-0.050l-3.335 1.941c-0.398 0.249-0.846 0.249-1.245 0l-2.887-1.643c-0.1-0.050-0.199-0.050-0.299 0l-11.101 10.255c-0.050 0.050-0.050 0.1-0.050 0.249 0 0.050 0.050 0.1 0.1 0.199 0.249 0.050 0.398 0.1 0.498 0.1h28.325c0.050 0 0.149-0.050 0.249-0.1 0-0.149 0-0.249-0.050-0.299l-9.906-10.653z"></path>
<path class="icon-path" d="M10.076 16.448c0.050-0.050 0.050-0.1 0.050-0.199s-0.050-0.199-0.1-0.199l-8.612-4.928c-0.1-0.050-0.199-0.050-0.299 0-0.050 0-0.1 0.050-0.1 0.199v12.993c0 0.1 0.050 0.199 0.199 0.249h0.1c0.050 0 0.1 0 0.1-0.050l8.662-8.064z"></path>
<path class="icon-path" d="M31.432 10.873h-0.249l-8.214 4.878c-0.050 0-0.1 0.050-0.1 0.199-0.050 0.050 0 0.1 0.050 0.199l8.214 8.861c0.050 0.050 0.149 0.1 0.199 0.1h0.1c0.1-0.1 0.199-0.199 0.199-0.249v-13.739c0-0.1-0.050-0.199-0.199-0.249z"></path>
<path class="icon-path" d="M30.635 3.555h-28.673c-0.299 0-0.498 0.1-0.747 0.249-0.199 0.199-0.299 0.448-0.299 0.747v3.186c0 0.149 0.050 0.249 0.199 0.249l15.133 8.612c0.050 0 0.149 0 0.199-0.050l14.586-8.512c0.050-0.050 0.149-0.050 0.199-0.050s0.1 0 0.199-0.050c0.149 0 0.249-0.050 0.249-0.249v-3.086c0-0.299-0.1-0.597-0.299-0.747-0.249-0.199-0.498-0.299-0.747-0.299z"></path>
</symbol>
<symbol id="icon-rss" viewBox="0 0 32 32">
<title>rss</title>
<path class="icon-path" d="M15.205 16.333c-4.66-4.259-12.99-5.259-12.99-5.259-0.936 0-1.699 0.635-1.699 1.548v2.899c0 0.912 0.763 1.549 1.699 1.553 0 0 5.354 0.137 8.57 3.040 4.245 3.833 4.13 9.149 4.13 9.149 0 0.916 0.443 1.658 1.382 1.658h3.293c0.938 0 1.167-0.742 1.167-1.658 0 0-0.784-8.579-5.552-12.929zM4.924 22.814c-2.326 0-4.213 1.837-4.213 4.101 0 2.27 1.887 4.104 4.213 4.104 2.329 0 4.217-1.834 4.217-4.104 0-2.264-1.887-4.101-4.217-4.101zM23.546 10.576c-7.331-8.608-21.33-9.54-21.33-9.54-0.936 0-1.699 0.639-1.699 1.555v2.895c0 0.916 0.763 1.55 1.699 1.55 0 0 10.004 0.315 15.646 6.805 7.734 7.746 7.146 15.489 7.146 15.489 0 0.915 0.76 1.655 1.701 1.655h3.293c0.94 0 1.489-0.74 1.489-1.655 0 0-0.696-12.179-7.945-18.754z"></path>
</symbol>
<symbol id="icon-twitter" viewBox="0 0 32 32">
<title>twitter</title>
<path class="icon-path" d="M32.010 7.547c-1.178 0.52-2.444 0.869-3.773 1.028 1.356-0.807 2.397-2.086 2.888-3.606-1.268 0.746-2.675 1.287-4.17 1.582-1.198-1.268-2.905-2.060-4.793-2.060-3.627 0-6.568 2.918-6.568 6.519 0 0.507 0.058 1.008 0.17 1.485-5.457-0.274-10.296-2.868-13.536-6.809-0.564 0.962-0.889 2.080-0.889 3.274 0 2.263 1.16 4.256 2.922 5.425-1.076-0.033-2.089-0.328-2.974-0.816-0.001 0.027-0.001 0.054-0.001 0.083 0 3.158 2.264 5.791 5.268 6.39-0.551 0.149-1.131 0.227-1.73 0.227-0.423 0-0.835-0.039-1.236-0.116 0.835 2.59 3.261 4.474 6.135 4.525-2.248 1.748-5.080 2.791-8.156 2.791-0.531 0-1.053-0.031-1.567-0.093 2.906 1.85 6.358 2.929 10.067 2.929 12.079 0 18.684-9.93 18.684-18.541 0-0.282-0.006-0.564-0.018-0.843 1.284-0.92 2.396-2.067 3.277-3.374z"></path>
</symbol>
<symbol id="icon-weibo" viewBox="0 0 32 32">
<title>sina-weibo</title>
<path class="icon-path" d="M31.601 14.102c0 0.002 0 0.003 0 0.005-0.209 0.643-0.9 0.996-1.544 0.788-0.645-0.208-0.998-0.899-0.79-1.545h-0.001c0.64-1.981 0.234-4.241-1.259-5.898s-3.698-2.289-5.735-1.857c-0.663 0.141-1.314-0.282-1.455-0.944-0.142-0.661 0.28-1.313 0.943-1.456h0.001c2.863-0.609 5.964 0.28 8.067 2.614 2.103 2.33 2.671 5.507 1.773 8.293zM23.11 9.519v-0.001c-0.568 0.124-1.13-0.241-1.251-0.81-0.122-0.571 0.241-1.132 0.811-1.253 1.395-0.298 2.906 0.134 3.93 1.27s1.3 2.683 0.861 4.041c-0.179 0.555-0.774 0.858-1.328 0.681-0.555-0.18-0.858-0.776-0.679-1.33h-0.002c0.215-0.664 0.080-1.421-0.42-1.976s-1.239-0.765-1.922-0.621zM23.533 11.494c0.554 0.792 0.501 1.903-0.010 3.19-0.236 0.592 0.073 0.684 0.524 0.82 1.836 0.569 3.881 1.948 3.881 4.375 0 4.019-5.792 9.081-14.499 9.081-6.641 0-13.431-3.221-13.431-8.519 0-2.769 1.754-5.972 4.773-8.994 4.033-4.034 8.735-5.872 10.504-4.101 0.78 0.78 0.855 2.131 0.354 3.744-0.261 0.812 0.762 0.362 0.762 0.364 3.26-1.366 6.103-1.446 7.143 0.040zM22.42 19.806c-0.343-3.48-4.918-5.878-10.219-5.354-5.299 0.525-9.318 3.772-8.974 7.253s4.919 5.878 10.219 5.355c5.301-0.524 9.317-3.772 8.974-7.255zM10.019 25.565c-2.548-0.823-3.626-3.34-2.511-5.608 1.096-2.224 3.945-3.481 6.467-2.825 2.61 0.675 3.942 3.139 2.876 5.531-1.082 2.448-4.193 3.753-6.832 2.902zM11.458 20.799c-0.821-0.344-1.881 0.009-2.388 0.804-0.513 0.798-0.272 1.749 0.543 2.12 0.827 0.378 1.924 0.019 2.437-0.799 0.503-0.827 0.238-1.771-0.592-2.125zM13.481 19.96c-0.315-0.125-0.708 0.026-0.893 0.336-0.179 0.311-0.080 0.666 0.235 0.796 0.321 0.132 0.731-0.020 0.916-0.337 0.177-0.319 0.062-0.678-0.258-0.795z"></path>
</symbol>
<symbol id="icon-zhihu" viewBox="0 0 32 32">
<title>zhihu</title>
<path class="icon-path" d="M26.182 27.151l-4.849 4.849v-4.849h-2.909v-22.303l12.596 0.164 0.010-0.164v22.303h-4.849zM28.121 7.758h-6.788v17.422l0.97 0.033v1.939l3.736-1.99 2.082 0.050v-17.455zM11.636 17.455c-1.010 0.010-1.043-0.212-1.089 0.878-0.029 0.693-0.243 1.378-0.374 2.066l-0.859 2.763c-0.696 1.816-1.484 3.581-2.768 5.092-1.274 1.496-3.009 1.705-4.803 1.768-0.279 0.010-0.666 0.054-0.766-0.312-0.093-0.344 0.245-0.524 0.465-0.701 1.89-1.528 3.22-2.641 4.376-4.765 0.937-1.72 1.633-2.913 1.939-4.849 0.131-0.829-0.18-1.962-0.97-1.939-1.466 0.042-4.351-0.015-5.818 0-0.047-0.005 0.13-0.469 0.282-0.954 0.314-1.057 1.049-1.92 1.873-1.905 1.279 0.023 1.416-0.091 2.694-0.050 0.81 0.026 1.948-0.128 1.939-0.97-0.019-1.901-0.053-3.919 0-5.818 0.016-0.545 0.382-0.769-0.134-0.812-1.677-0.137-1.841-0.060-2.635 1.474-0.648 1.25-1.984 1.959-3.337 2.294-0.73 0.181-0.655 0.156-0.562-0.064 1.071-2.514 2.233-5.721 3.248-8.247 0.417-1.038 2.182-1.795 3.203-2.378 0 0 0.239-0.173 0.005 0.553-0.251 0.782-0.585 2.202-0.863 2.973-0.292 0.806-0.146 1.223 0.677 1.216 2.446-0.020 5.026 0 7.473 0 0.577 0 1.068-0.097 1.429 0.514 1.176 1.984 0.91 1.649-0.235 1.667-0.978 0.016-2.443-0.127-3.42-0.16-0.74-0.025-1.785 0.378-1.819 1.161-0.091 2.122-0.149 3.687-0.12 5.627 0.011 0.689 1.451 0.971 1.939 0.97 1.279-0.002 1.444 0.028 2.723 0.050 1.044 0.017 1.761 0.864 2.126 1.889 0.026 0.324 0.261 0.881 0 0.97-1.335-0.014-4.501-0.013-5.818 0zM15.515 25.212c0.381 0.565 0.431 1.574 0 2.909-0.085 0.266-0.604 0.133-1.166-0.507-1.357-1.548-2.601-3.188-3.913-4.773-0.367-0.443-0.587-0.694-0.754-0.746l1.954-1.732c0.894 1.056 2.987 3.791 3.879 4.848z"></path>
</symbol>
<symbol id="icon-bilibili" viewBox="0 0 32 32">
<title>bilibili</title>
<path class="icon-path" d="M31.364 28.407c-0.273 0.001-0.55 0.025-0.821-0.004-0.992-0.108-1.716 1.020-2.060 2.208-0.31 1.070-1.486 1.617-2.545 1.507-1.223-0.126-2.032-0.825-2.344-1.93-0.188-0.668-0.754-1.186-1.378-1.182-4.303 0.025-8.13 0.013-12.434 0-0.495-0.001-1.024 0.473-1.169 1.057-0.31 1.252-1.374 2.046-2.552 2.066-1.22 0.021-2.279-0.753-2.635-2.053-0.149-0.544-0.401-1.708-0.921-1.679-0.669 0.037-1.343 0.019-2.014 0.007-0.734-0.013-1.058-0.308-1.058-1.004 0.005-7.080 0.016-14.159 0.034-21.239 0.002-0.732 0.306-0.978 1.149-0.979 3.457-0.004 6.915-0.002 10.373-0.002 0.241 0 0.483 0 0.723 0 0.022-0.059 0.045-0.119 0.066-0.179-0.803-0.422-1.606-0.843-2.408-1.266-1.331-0.703-2.665-1.403-3.994-2.108-0.539-0.286-0.763-0.722-0.458-1.263 0.308-0.547 0.816-0.58 1.348-0.3 3.122 1.646 6.245 3.291 9.355 4.955 0.797 0.427 2.231 0.171 2.744-0.55 1.591-2.242 3.18-4.484 4.77-6.728 0.056-0.079 0.11-0.16 0.168-0.238 0.454-0.609 0.969-0.774 1.437-0.414 0.542 0.415 0.449 0.909 0.1 1.403-0.646 0.915-1.291 1.829-1.935 2.744-0.893 1.268-1.785 2.538-2.777 3.947 0.406 0 0.666 0 0.926 0 3.434 0 6.867-0.001 10.299 0.001 1.049 0.001 1.21 0.16 1.211 1.179 0.010 6.959 0.020 13.917 0.026 20.876 0.001 0.995-0.182 1.163-1.229 1.17zM26.204 30.489c0.549-0.036 0.81-1.491 0.977-2.041-0.714 0-1.346 0-2.076 0 0.204 0.605 0.487 2.083 1.099 2.041zM5.968 30.49c0.608 0.037 0.895-1.433 1.076-2.037-0.719 0-1.348 0-2.045 0 0.139 0.569 0.425 2.004 0.969 2.037zM30.506 7.247c-9.935 0-19.135 0-29.012 0 0 6.696 0 13.030 0 19.687 9.925 0 19.086 0 29.012 0 0-6.706 0-13.022 0-19.687zM3.566 11.269c0.002-0.959 0.465-1.897 1.431-1.898 7.37-0.001 14.154-0.054 21.524-0.052 0.98 0 1.91 1.001 1.913 1.95 0.013 4.578-0.007 8.101 0 12.678 0.002 0.978-0.885 1.949-1.913 1.95-3.674 0.002-6.848 0-10.521 0s-6.847 0.002-10.521 0c-1.069-0.001-1.914-0.896-1.913-1.95 0.005-4.555-0.008-8.123 0-12.678zM26.669 23.806c0-4.328-0.148-8.3-0.148-12.536-7.112 0-13.993 0-21.042 0 0 4.303-0.025 8.272-0.025 12.536 7.098 0 14.134 0 21.215 0zM11.449 13.793c0.060-0.027 0.135-0.022 0.386-0.058 0.146 0.143 0.515 0.34 0.554 0.586 0.045 0.288-0.11 0.79-0.333 0.903-1.362 0.691-2.76 1.314-4.162 1.924-0.427 0.186-0.896 0.046-1.005-0.41-0.071-0.298 0.057-0.865 0.271-0.973 1.403-0.71 2.853-1.328 4.289-1.973zM11.877 18.412c0.265-0.009 0.608 0.357 0.8 0.637 0.153 0.223 0.089 0.579 0.197 0.848 0.204 0.513 0.588 1.001 1.156 0.881 0.42-0.088 0.803-0.508 1.118-0.856 0.155-0.172 0.129-0.512 0.167-0.778 0.071-0.501 0.367-0.81 0.862-0.798 0.453 0.011 0.747 0.285 0.805 0.775 0.037 0.31 0.046 0.694 0.231 0.9 0.296 0.329 0.723 0.727 1.105 0.74 0.346 0.011 0.767-0.407 1.039-0.73 0.181-0.215 0.171-0.594 0.228-0.903 0.092-0.494 0.378-0.795 0.89-0.755 0.509 0.039 0.776 0.367 0.756 0.878-0.049 1.296-0.564 2.35-1.778 2.928-1.131 0.54-2.188 0.308-3.115-0.522-0.050-0.045-0.11-0.077-0.172-0.119-0.282 0.196-0.543 0.423-0.842 0.579-0.979 0.511-1.959 0.468-2.863-0.16-0.997-0.694-1.441-1.706-1.352-2.882 0.019-0.255 0.491-0.654 0.767-0.663zM19.105 13.733c0.24-0.421 0.667-0.536 1.066-0.309 1.584 0.903 3.151 1.836 4.707 2.783 0.186 0.113 0.273 0.384 0.339 0.482 0.018 0.77-0.62 1.189-1.206 0.858-1.568-0.884-3.109-1.814-4.649-2.748-0.406-0.247-0.492-0.656-0.257-1.066z"></path>
</symbol>
<symbol id="icon-douban" viewBox="0 0 32 32">
<title>douban</title>
<path class="icon-path" d="M9.955 20.173c1.256 1.714 2.389 3.87 3.382 6.288h6.097c1.186-1.866 2.102-4.024 2.997-6.288l3.441 1.156c-0.9 1.909-1.994 3.681-3.023 5.132h8.537l0.043 3.038h-30.857v-2.893l9.351-0.146c-0.807-1.562-1.826-3.329-3.132-5.132l3.165-1.156zM1.536 2.5h28.929v2.893h-28.929v-2.893zM4.556 8.172l23.016 0.114v11.571h-23.143l0.127-11.685zM24.679 16.964l0.122-5.942-17.479 0.156v5.786h17.357z"></path>
</symbol>
<symbol id="icon-netease-music" viewBox="0 0 32 32">
<title>netease-music</title>
<path class="icon-path" d="M21.439-0.014c0.33 0.053 0.664 0.090 0.992 0.161 1.148 0.248 2.177 0.745 3.085 1.475 0.596 0.478 0.839 1.102 0.666 1.841-0.155 0.664-0.589 1.112-1.259 1.304-0.634 0.181-1.207 0.043-1.727-0.364-0.66-0.518-1.392-0.875-2.269-0.799-0.744 0.065-1.454 0.83-1.39 1.513 0.028 0.306 0.14 0.604 0.219 0.905 0.14 0.531 0.285 1.061 0.427 1.592 0.024 0.091 0.048 0.164 0.179 0.171 1.998 0.106 3.799 0.743 5.403 1.922 1.577 1.16 2.869 2.552 3.735 4.3 0.635 1.284 0.991 2.639 1.085 4.061 0.125 1.891-0.102 3.74-0.854 5.486-1.749 4.058-4.824 6.676-9.147 7.879-1.645 0.458-3.331 0.637-5.037 0.542-3.547-0.198-6.62-1.509-9.208-3.88-2.554-2.338-4.147-5.213-4.7-8.588-0.754-4.591 0.402-8.707 3.46-12.277 1.679-1.961 3.775-3.374 6.219-4.286 0.842-0.315 1.764-0.022 2.226 0.697 0.472 0.735 0.361 1.681-0.293 2.265-0.184 0.166-0.418 0.296-0.651 0.39-3.726 1.488-6.187 4.109-7.165 7.932-0.949 3.708-0.11 7.103 2.312 10.094 1.518 1.875 3.48 3.134 5.853 3.752 1.534 0.4 3.084 0.425 4.647 0.189 1.612-0.244 3.118-0.762 4.469-1.667 1.858-1.245 3.182-2.904 3.844-5.016 0.571-1.823 0.591-3.664-0.115-5.473-0.568-1.456-1.574-2.576-2.834-3.5-0.673-0.494-1.396-0.879-2.22-1.068-0.038-0.008-0.076-0.013-0.144-0.024 0.113 0.422 0.217 0.823 0.326 1.223 0.262 0.964 0.529 1.927 0.786 2.892 0.558 2.099 0.018 3.937-1.459 5.503-1.367 1.449-3.106 2.080-5.1 1.891-2.221-0.211-3.807-1.39-4.841-3.3-0.542-1-0.776-2.077-0.819-3.205-0.069-1.796 0.36-3.453 1.411-4.936 1.129-1.592 2.693-2.613 4.541-3.247 0.145-0.050 0.293-0.095 0.463-0.151-0.1-0.37-0.203-0.73-0.293-1.094-0.123-0.501-0.281-0.999-0.344-1.507-0.183-1.504 0.289-2.811 1.351-3.907 0.87-0.896 1.924-1.464 3.187-1.635 0.139-0.019 0.278-0.040 0.417-0.059 0.189 0 0.378 0 0.568 0zM17.495 11.658c-1.095 0.341-2.040 0.86-2.748 1.724-0.948 1.158-1.137 2.488-0.835 3.9 0.157 0.734 0.524 1.362 1.168 1.8 0.805 0.548 1.901 0.524 2.743-0.045 0.86-0.584 1.243-1.524 0.992-2.488-0.275-1.056-0.568-2.108-0.853-3.162-0.153-0.567-0.307-1.135-0.467-1.73z"></path>
</symbol>
<symbol id="icon-v2ex" viewBox="0 0 32 32">
<title>v2ex</title>
<path class="icon-path" d="M19.549 2.508h-17.378c-0.639 0-1.158 0.508-1.158 1.135v7.857h16.297c0.339 0 0.663 0.136 0.895 0.378l3.782 3.919c0.085 0.088 0.085 0.224 0.001 0.312l-3.782 3.957c-0.233 0.244-0.489 0.444-0.83 0.444h-16.363v7.866c0 0.627 0.519 1.136 1.158 1.136h17.374c0.383 0 0.75-0.149 1.021-0.415l11.738-11.518c0.915-0.897 0.912-2.352-0.007-3.246l-11.732-11.415c-0.27-0.263-0.635-0.41-1.016-0.41z"></path>
</symbol>
<symbol id="icon-circle">
<circle cx="50%" cy="50%" r="50%"/>
</symbol>
<symbol id="icon-github-circle" viewBox="0 0 32 32">
<title>github</title>
<use xlink:href="#icon-circle" fill="#5f5f5f"></use>
<use xlink:href="#icon-github" height="19" y="7" fill="#fff"></use>
</symbol>
<symbol id="icon-codepen-circle" viewBox="0 0 32 32">
<title>codepen</title>
<use xlink:href="#icon-circle" fill="#000"></use>
<use xlink:href="#icon-codepen" width="20" x="6" fill="#fff"></use>
</symbol>
<symbol id="icon-mail-circle" viewBox="0 0 32 32">
<title>mail</title>
<use xlink:href="#icon-circle" fill="#dd4b39"></use>
<use xlink:href="#icon-mail" width="20" x="6" fill="#fff"></use>
</symbol>
<symbol id="icon-rss-circle" viewBox="0 0 32 32">
<title>rss</title>
<use xlink:href="#icon-circle" fill="#fc9a2a"></use>
<use xlink:href="#icon-rss" width="16" x="9" fill="#fff"></use>
</symbol>
<symbol id="icon-twitter-circle" viewBox="0 0 32 32">
<title>twitter</title>
<use xlink:href="#icon-circle" fill="#1da1f2"></use>
<use xlink:href="#icon-twitter" width="20" x="7" fill="#fff"></use>
</symbol>
<symbol id="icon-weibo-circle" viewBox="0 0 32 32">
<title>sina-weibo</title>
<use xlink:href="#icon-circle" fill="#e6162d"></use>
<use xlink:href="#icon-weibo" width="20" x="6" fill="#fff"></use>
</symbol>
<symbol id="icon-zhihu-circle" viewBox="0 0 32 32">
<title>zhihu</title>
<use xlink:href="#icon-circle" fill="#086acd"></use>
<use xlink:href="#icon-zhihu" width="20" x="6" fill="#fff"></use>
</symbol>
<symbol id="icon-bilibili-circle" viewBox="0 0 32 32">
<title>bilibili</title>
<use xlink:href="#icon-circle" fill="#f489ad"></use>
<use xlink:href="#icon-bilibili" width="20" x="6" fill="#fff"></use>
</symbol>
<symbol id="icon-douban-circle" viewBox="0 0 32 32">
<title>douban</title>
<use xlink:href="#icon-circle" fill="#259235"></use>
<use xlink:href="#icon-douban" width="20" x="6" fill="#fff"></use>
</symbol>
<symbol id="icon-netease-music-circle" viewBox="0 0 32 32">
<title>netease-music</title>
<use xlink:href="#icon-circle" fill="#ea0606"></use>
<use xlink:href="#icon-netease-music" width="22" x="4.8" y="-.5" fill="#fff"></use>
</symbol>
<symbol id="icon-v2ex-circle" viewBox="0 0 32 32">
<title>v2ex</title>
<use xlink:href="#icon-circle" fill="#1e1e1f"></use>
<use xlink:href="#icon-v2ex" width="20" x="7" fill="#fff"></use>
</symbol>
</defs>
</svg>
